<?xml version="1.0" encoding="utf-8"?>
<!-- Generator: Adobe Illustrator 19.0.0, SVG Export Plug-In . SVG Version: 6.00 Build 0)  -->
<svg version="1.1" id="Layer_1" xmlns="http://www.w3.org/2000/svg" xmlns:xlink="http://www.w3.org/1999/xlink" x="0px" y="0px"
	 viewBox="0 0 96.5 94.8" style="enable-background:new 0 0 96.5 94.8;" xml:space="preserve">
<style type="text/css">
	.st0{fill:#FFFFFF;}
</style>
<g id="XMLID_128_">
	<g id="XMLID_144_">
		<path id="XMLID_148_" class="st0" d="M71.4,6.7C70.6,2.9,67.2,0,63.2,0c-0.9,0-1.7,0.7-1.7,1.7s0.7,1.7,1.7,1.7c2.8,0,5,2.2,5,5
			s-2.2,5-5,5c-0.9,0-1.7,0.7-1.7,1.7c0,0.9,0.7,1.7,1.7,1.7c4,0,7.4-2.9,8.2-6.7h21.8v11.6h-20h-3.3h-20h-3.3h-20h-3.3h-20V10h23.3
			h5c0.9,0,1.7-0.7,1.7-1.7c0-0.9-0.7-1.7-1.7-1.7h-3c0.7-1.9,2.5-3.3,4.7-3.3c2.8,0,5,2.2,5,5s-2.2,5-5,5c-0.9,0-1.7,0.7-1.7,1.7
			c0,0.9,0.7,1.7,1.7,1.7c4.6,0,8.3-3.7,8.3-8.3S37.9,0,33.3,0c-4,0-7.4,2.9-8.2,6.7H0v15v5v18.3v3.3v20v3.3v23.3h23.3h3.3h20h3.3
			h20h3.3h23.3V71.5v-3.3v-20v-3.3V26.6v-5v-15H71.4z M49.9,25h20v20h-20V25z M69.9,68.2h-20v-20h20V68.2z M26.6,48.2h20v20h-20
			V48.2z M26.6,25h20v20h-20V25z M3.3,26.6V25h20v20h-20V26.6z M3.3,48.2h20v20h-20V48.2z M3.3,91.5v-20h20v20H3.3z M26.6,91.5v-20
			h20v20H26.6z M49.9,91.5v-20h20v20H49.9z M93.2,91.5h-20v-20h20V91.5z M93.2,68.2h-20v-20h20V68.2z M73.2,44.9V25h20v1.7v18.3
			H73.2z"/>
		<path id="XMLID_147_" class="st0" d="M43.3,3.3c2.8,0,5,2.2,5,5s-2.2,5-5,5c-0.9,0-1.7,0.7-1.7,1.7c0,0.9,0.7,1.7,1.7,1.7
			c4.6,0,8.3-3.7,8.3-8.3S47.8,0,43.3,0c-0.9,0-1.7,0.7-1.7,1.7S42.3,3.3,43.3,3.3z"/>
		<path id="XMLID_146_" class="st0" d="M53.2,3.3c2.8,0,5,2.2,5,5s-2.2,5-5,5c-0.9,0-1.7,0.7-1.7,1.7c0,0.9,0.7,1.7,1.7,1.7
			c4.6,0,8.3-3.7,8.3-8.3S57.8,0,53.2,0c-0.9,0-1.7,0.7-1.7,1.7S52.3,3.3,53.2,3.3z"/>
		<path id="XMLID_145_" class="st0" d="M52.1,66.1c0.3,0.3,0.8,0.5,1.2,0.5c0.4,0,0.9-0.2,1.2-0.5l5.5-5.5l5.5,5.5
			c0.3,0.3,0.8,0.5,1.2,0.5c0.4,0,0.9-0.2,1.2-0.5c0.7-0.7,0.7-1.7,0-2.4l-5.5-5.5l5.5-5.5c0.7-0.7,0.7-1.7,0-2.4s-1.7-0.7-2.4,0
			l-5.5,5.5l-5.5-5.5c-0.7-0.7-1.7-0.7-2.4,0s-0.7,1.7,0,2.4l5.5,5.5l-5.5,5.5C51.4,64.4,51.4,65.4,52.1,66.1z"/>
	</g>
	<g id="XMLID_143_">
	</g>
	<g id="XMLID_142_">
	</g>
	<g id="XMLID_141_">
	</g>
	<g id="XMLID_140_">
	</g>
	<g id="XMLID_139_">
	</g>
	<g id="XMLID_138_">
	</g>
	<g id="XMLID_137_">
	</g>
	<g id="XMLID_136_">
	</g>
	<g id="XMLID_135_">
	</g>
	<g id="XMLID_134_">
	</g>
	<g id="XMLID_133_">
	</g>
	<g id="XMLID_132_">
	</g>
	<g id="XMLID_131_">
	</g>
	<g id="XMLID_130_">
	</g>
	<g id="XMLID_129_">
	</g>
</g>
</svg>
