<?xml version="1.0" encoding="utf-8"?>
<!-- Generator: Adobe Illustrator 19.0.0, SVG Export Plug-In . SVG Version: 6.00 Build 0)  -->
<svg version="1.1" id="Layer_1" xmlns="http://www.w3.org/2000/svg" xmlns:xlink="http://www.w3.org/1999/xlink" x="0px" y="0px"
	 viewBox="0 0 100 100" style="enable-background:new 0 0 100 100;" xml:space="preserve">
<style type="text/css">
	.st0{fill:#FFFFFF;}
</style>
<g id="XMLID_162_">
	<g id="XMLID_191_">
		<g id="XMLID_192_">
			<path id="XMLID_193_" class="st0" d="M85.4,14.6C75.9,5.2,63.4,0,50,0S24.1,5.2,14.6,14.6C5.2,24.1,0,36.6,0,50
				s5.2,25.9,14.6,35.4c9.4,9.4,22,14.6,35.4,14.6s25.9-5.2,35.4-14.6c9.4-9.4,14.6-22,14.6-35.4S94.8,24.1,85.4,14.6z M50,96.8
				c-25.8,0-46.8-21-46.8-46.8S24.2,3.2,50,3.2s46.8,21,46.8,46.8S75.8,96.8,50,96.8z"/>
		</g>
	</g>
	<g id="XMLID_188_">
		<g id="XMLID_189_">
			<path id="XMLID_190_" class="st0" d="M87.6,56.9c0-0.9-0.7-1.6-1.6-1.6c-0.9,0-1.6,0.7-1.6,1.6c0.1,5-0.1,9.7-0.5,13.7
				c-7.1,5.5-17.1,8.8-24,9.7l-3.5-9.4c4.9-0.8,12.3-2.9,18.3-8.8c0.5-0.5,0.6-1.3,0.3-1.9c-0.4-0.6-1.1-0.9-1.8-0.7
				c-0.7,0.2-1.7,0.6-2.7,1c-1.1,0.4-2.4,0.9-3.1,1.1c-5.7,1.4-11.6,2.1-17.3,2.1c0,0,0,0,0,0h0c-5.7,0-11.6-0.7-17.3-2.1
				c-0.7-0.2-2-0.7-3.1-1.1c-1-0.4-1.9-0.7-2.6-0.9c-0.7-0.2-1.4,0-1.8,0.5c-0.5,0.6-0.4,1.5,0.2,2.1c6,5.9,13.4,8.1,18.3,8.8
				l-3.5,9.4c-6.9-0.9-16.9-4.1-24-9.7c-1.5-13.2-0.1-34.5,4.8-46.8c4.5-2,11.1-2.6,17.2-2.9l-9.9,4.6c-0.7,0.3-1.1,1.2-0.8,2
				c0.3,0.8,1.1,1.2,1.9,1c6.8-2,13.8-3,20.6-3s13.8,1,20.6,3c0.8,0.2,1.6-0.2,1.9-1c0.3-0.8-0.1-1.6-0.8-2l-9.9-4.6
				c6.2,0.2,12.8,0.8,17.2,2.9c2.7,6.8,4.3,16.2,5,25.5c0.1,0.8,0.8,1.5,1.6,1.5h0c0.9,0,1.7-0.8,1.6-1.7c-0.7-9.9-2.5-19.8-5.5-27
				c-0.1-0.4-0.4-0.6-0.8-0.8c-6.3-3.1-16.1-3.4-24-3.6c-1,0-1.9,0-2.8-0.1c-0.7,0-1.4,0.5-1.6,1.2c-0.2,0.7,0.2,1.5,0.9,1.8
				l4.8,2.2c-2.8-0.3-5.6-0.5-8.4-0.5s-5.6,0.2-8.4,0.5l4.8-2.2c0.7-0.3,1-1.1,0.9-1.8c-0.2-0.7-0.8-1.2-1.6-1.2
				c-0.9,0-1.8,0.1-2.8,0.1c-7.9,0.2-17.7,0.5-24,3.6c-0.3,0.2-0.6,0.5-0.8,0.8c-5.4,13.1-6.9,35.6-5.2,49.6c0,0.4,0.3,0.8,0.6,1
				c8.1,6.5,19.6,10.2,27.4,10.9c0,0,0.1,0,0.1,0c0.7,0,1.2-0.4,1.5-1l4.6-12.4c0.2-0.6,0.1-1.3-0.5-1.8c-0.3-0.2-0.6-0.3-0.9-0.4
				c-2.4-0.2-6.1-0.9-10-2.6c4.7,0.9,9.4,1.3,14.1,1.3h0h0h0c4.7,0,9.4-0.4,14-1.3c-3.9,1.7-7.5,2.3-9.9,2.6c-0.3,0-0.7,0.2-0.9,0.4
				c-0.5,0.4-0.7,1.1-0.5,1.8l4.6,12.4c0.2,0.6,0.8,1,1.5,1c0,0,0.1,0,0.1,0c7.8-0.7,19.3-4.3,27.4-10.9c0.3-0.3,0.5-0.6,0.6-1
				C87.5,67.3,87.7,62.2,87.6,56.9z"/>
		</g>
	</g>
	<g id="XMLID_183_">
		<g id="XMLID_184_">
			<path id="XMLID_185_" class="st0" d="M35.3,35.8c-5.5,0-10,4.5-10,10s4.5,10,10,10s10-4.5,10-10S40.8,35.8,35.3,35.8z M35.3,52.6
				c-3.8,0-6.8-3.1-6.8-6.8c0-3.8,3.1-6.8,6.8-6.8s6.8,3.1,6.8,6.8C42.1,49.6,39,52.6,35.3,52.6z"/>
		</g>
	</g>
	<g id="XMLID_178_">
		<g id="XMLID_179_">
			<path id="XMLID_180_" class="st0" d="M64.7,35.8c-5.5,0-10,4.5-10,10s4.5,10,10,10s10-4.5,10-10S70.3,35.8,64.7,35.8z M64.7,52.6
				c-3.8,0-6.8-3.1-6.8-6.8c0-3.8,3.1-6.8,6.8-6.8s6.8,3.1,6.8,6.8C71.6,49.6,68.5,52.6,64.7,52.6z"/>
		</g>
	</g>
	<g id="XMLID_177_">
	</g>
	<g id="XMLID_176_">
	</g>
	<g id="XMLID_175_">
	</g>
	<g id="XMLID_174_">
	</g>
	<g id="XMLID_173_">
	</g>
	<g id="XMLID_172_">
	</g>
	<g id="XMLID_171_">
	</g>
	<g id="XMLID_170_">
	</g>
	<g id="XMLID_169_">
	</g>
	<g id="XMLID_168_">
	</g>
	<g id="XMLID_167_">
	</g>
	<g id="XMLID_166_">
	</g>
	<g id="XMLID_165_">
	</g>
	<g id="XMLID_164_">
	</g>
	<g id="XMLID_163_">
	</g>
</g>
</svg>
