<?xml version="1.0" encoding="utf-8"?>
<!-- Generator: Adobe Illustrator 19.0.0, SVG Export Plug-In . SVG Version: 6.00 Build 0)  -->
<svg version="1.1" id="Layer_1" xmlns="http://www.w3.org/2000/svg" xmlns:xlink="http://www.w3.org/1999/xlink" x="0px" y="0px"
	 viewBox="0 0 100 100" style="enable-background:new 0 0 100 100;" xml:space="preserve">
<style type="text/css">
	.st0{fill:#FFFFFF;}
</style>
<g id="XMLID_103_">
	<g id="XMLID_119_">
		<g id="XMLID_120_">
			<g id="XMLID_121_">
				<path id="XMLID_123_" class="st0" d="M91.7,59.4V16.7c0-4.6-3.7-8.3-8.3-8.3H70.8V2.1c0-1.2-0.9-2.1-2.1-2.1s-2.1,0.9-2.1,2.1
					v6.3H29.2V2.1c0-1.2-0.9-2.1-2.1-2.1C25.9,0,25,0.9,25,2.1v6.3H8.3C3.7,8.3,0,12.1,0,16.7v66.7c0,4.6,3.7,8.3,8.3,8.3h51.1
					c4.2,5.1,10.6,8.3,17.7,8.3c12.6,0,22.9-10.3,22.9-22.9C100,70,96.8,63.6,91.7,59.4z M4.2,16.7c0-2.3,1.9-4.2,4.2-4.2H25v4.2
					c-2.3,0-4.2,1.9-4.2,4.2S22.7,25,25,25s4.2-1.9,4.2-4.2v-8.3h37.5v4.2c-2.3,0-4.2,1.9-4.2,4.2s1.9,4.2,4.2,4.2
					c2.3,0,4.2-1.9,4.2-4.2v-8.3h12.5c2.3,0,4.2,1.9,4.2,4.2v12.5H4.2V16.7z M8.3,87.5c-2.3,0-4.2-1.9-4.2-4.2v-50h83.3v23.4
					c-3.1-1.6-6.7-2.5-10.4-2.5c-12.6,0-22.9,10.3-22.9,22.9c0,3.8,0.9,7.3,2.5,10.4H8.3z M77.1,95.8c-10.3,0-18.8-8.4-18.8-18.8
					s8.4-18.8,18.8-18.8s18.8,8.4,18.8,18.8S87.4,95.8,77.1,95.8z"/>
				<path id="XMLID_122_" class="st0" d="M86,69.4L72.9,82.5l-4.8-4.8c-0.8-0.8-2.1-0.8-2.9,0c-0.8,0.8-0.8,2.1,0,2.9l6.3,6.3
					c0.4,0.4,0.9,0.6,1.5,0.6s1.1-0.2,1.5-0.6L89,72.3c0.8-0.8,0.8-2.1,0-2.9C88.2,68.5,86.8,68.5,86,69.4z"/>
			</g>
		</g>
	</g>
	<g id="XMLID_118_">
	</g>
	<g id="XMLID_117_">
	</g>
	<g id="XMLID_116_">
	</g>
	<g id="XMLID_115_">
	</g>
	<g id="XMLID_114_">
	</g>
	<g id="XMLID_113_">
	</g>
	<g id="XMLID_112_">
	</g>
	<g id="XMLID_111_">
	</g>
	<g id="XMLID_110_">
	</g>
	<g id="XMLID_109_">
	</g>
	<g id="XMLID_108_">
	</g>
	<g id="XMLID_107_">
	</g>
	<g id="XMLID_106_">
	</g>
	<g id="XMLID_105_">
	</g>
	<g id="XMLID_104_">
	</g>
</g>
</svg>
