<?xml version="1.0" encoding="utf-8"?>
<!-- Generator: Adobe Illustrator 19.0.0, SVG Export Plug-In . SVG Version: 6.00 Build 0)  -->
<svg version="1.1" id="Layer_1" xmlns="http://www.w3.org/2000/svg" xmlns:xlink="http://www.w3.org/1999/xlink" x="0px" y="0px"
	 viewBox="0 0 100 100" style="enable-background:new 0 0 100 100;" xml:space="preserve">
<style type="text/css">
	.st0{fill:#FFFFFF;}
</style>
<g id="XMLID_66_">
	<g id="XMLID_153_">
		<g id="XMLID_154_">
			<path id="XMLID_155_" class="st0" d="M29.3,58c0.4-0.3,0.7-0.8,0.7-1.3V20c0-0.9-0.7-1.7-1.7-1.7H1.7C0.7,18.3,0,19.1,0,20v36.7
				c0,0.5,0.2,1,0.7,1.3l12.7,9.5v2.6C5.8,70.9,0,77.3,0,85c0,8.3,6.7,15,15,15s15-6.7,15-15c0-7.7-5.8-14.1-13.3-14.9v-2.6L29.3,58
				z M23.3,21.7h3.3v34.2l-3.3,2.5V21.7z M6.7,58.3l-3.3-2.5V21.7h3.3V58.3z M26.7,85c0,6.4-5.2,11.7-11.7,11.7S3.3,91.4,3.3,85
				c0-6.4,5.2-11.7,11.7-11.7S26.7,78.6,26.7,85z M15,64.6l-5-3.8V21.7h10v39.2L15,64.6z"/>
		</g>
	</g>
	<g id="XMLID_145_">
		<g id="XMLID_146_">
			<path id="XMLID_147_" class="st0" d="M65.9,39.7c0.5-0.3,0.7-0.8,0.7-1.4V1.7C66.7,0.7,65.9,0,65,0H35c-0.9,0-1.7,0.7-1.7,1.7
				v36.7c0,0.6,0.3,1.1,0.7,1.4l14.3,9.5v5.3l-4.3,7.1H35c-0.6,0-1.2,0.4-1.5,0.9c-0.3,0.6-0.2,1.3,0.2,1.8l5.8,7.3L33.7,79
				c-0.4,0.5-0.5,1.2-0.2,1.8c0.3,0.6,0.9,0.9,1.5,0.9h9.1l4.5,7.5c0.3,0.5,0.8,0.8,1.4,0.8s1.1-0.3,1.4-0.8l4.5-7.5H65
				c0.6,0,1.2-0.4,1.5-0.9c0.3-0.6,0.2-1.3-0.2-1.8l-5.8-7.3l5.8-7.3c0.4-0.5,0.5-1.2,0.2-1.8c-0.3-0.6-0.9-0.9-1.5-0.9h-9.1
				l-4.3-7.1v-5.3L65.9,39.7z M60,3.3h3.3v34.1L60,39.7V3.3z M40,39.7l-3.3-2.2V3.3H40V39.7z M53.6,64.2c0.3,0.5,0.8,0.8,1.4,0.8
				h6.5L57,70.6c-0.5,0.6-0.5,1.5,0,2.1l4.5,5.6H55c-0.6,0-1.1,0.3-1.4,0.8l-3.6,6l-3.6-6c-0.3-0.5-0.8-0.8-1.4-0.8h-6.5l4.5-5.6
				c0.5-0.6,0.5-1.5,0-2.1L38.5,65H45c0.6,0,1.1-0.3,1.4-0.8l3.6-6L53.6,64.2z M50,46.3l-6.7-4.4V3.3h13.3v38.6L50,46.3z"/>
		</g>
	</g>
	<g id="XMLID_140_">
		<g id="XMLID_141_">
			<path id="XMLID_142_" class="st0" d="M15,76.7c-4.6,0-8.3,3.7-8.3,8.3c0,4.6,3.7,8.3,8.3,8.3s8.3-3.7,8.3-8.3
				C23.3,80.4,19.6,76.7,15,76.7z M15,90c-2.8,0-5-2.2-5-5c0-2.8,2.2-5,5-5s5,2.2,5,5C20,87.8,17.8,90,15,90z"/>
		</g>
	</g>
	<g id="XMLID_132_">
		<g id="XMLID_133_">
			<path id="XMLID_134_" class="st0" d="M99.3,58c0.4-0.3,0.7-0.8,0.7-1.3V20c0-0.9-0.7-1.7-1.7-1.7H71.7c-0.9,0-1.7,0.7-1.7,1.7
				v36.7c0,0.5,0.2,1,0.7,1.3l12.7,9.5v2.6C75.8,70.9,70,77.3,70,85c0,8.3,6.7,15,15,15s15-6.7,15-15c0-7.7-5.8-14.1-13.3-14.9v-2.6
				L99.3,58z M93.3,21.7h3.3v34.2l-3.3,2.5V21.7z M76.7,58.3l-3.3-2.5V21.7h3.3V58.3z M96.7,85c0,6.4-5.2,11.7-11.7,11.7
				S73.3,91.4,73.3,85c0-6.4,5.2-11.7,11.7-11.7S96.7,78.6,96.7,85z M85,64.6l-5-3.8V21.7h10v39.2L85,64.6z"/>
		</g>
	</g>
	<g id="XMLID_127_">
		<g id="XMLID_128_">
			<path id="XMLID_129_" class="st0" d="M85,76.7c-4.6,0-8.3,3.7-8.3,8.3c0,4.6,3.7,8.3,8.3,8.3s8.3-3.7,8.3-8.3
				C93.3,80.4,89.6,76.7,85,76.7z M85,90c-2.8,0-5-2.2-5-5c0-2.8,2.2-5,5-5s5,2.2,5,5C90,87.8,87.8,90,85,90z"/>
		</g>
	</g>
	<g id="XMLID_124_">
		<g id="XMLID_125_">
			<rect id="XMLID_126_" x="55" y="93.3" class="st0" width="3.3" height="3.3"/>
		</g>
	</g>
	<g id="XMLID_121_">
		<g id="XMLID_122_">
			<rect id="XMLID_123_" x="48.3" y="93.3" class="st0" width="3.3" height="3.3"/>
		</g>
	</g>
	<g id="XMLID_118_">
		<g id="XMLID_119_">
			<rect id="XMLID_120_" x="41.7" y="93.3" class="st0" width="3.3" height="3.3"/>
		</g>
	</g>
	<g id="XMLID_115_">
		<g id="XMLID_116_">
			<rect id="XMLID_117_" x="48.3" y="6.7" class="st0" width="3.3" height="3.3"/>
		</g>
	</g>
	<g id="XMLID_112_">
		<g id="XMLID_113_">
			<rect id="XMLID_114_" x="48.3" y="13.3" class="st0" width="3.3" height="3.3"/>
		</g>
	</g>
	<g id="XMLID_109_">
		<g id="XMLID_110_">
			<rect id="XMLID_111_" x="48.3" y="20" class="st0" width="3.3" height="3.3"/>
		</g>
	</g>
	<g id="XMLID_106_">
		<g id="XMLID_107_">
			<rect id="XMLID_108_" x="48.3" y="26.7" class="st0" width="3.3" height="3.3"/>
		</g>
	</g>
	<g id="XMLID_103_">
		<g id="XMLID_104_">
			<rect id="XMLID_105_" x="48.3" y="33.3" class="st0" width="3.3" height="3.3"/>
		</g>
	</g>
	<g id="XMLID_100_">
		<g id="XMLID_101_">
			<rect id="XMLID_102_" x="48.3" y="40" class="st0" width="3.3" height="3.3"/>
		</g>
	</g>
	<g id="XMLID_97_">
		<g id="XMLID_98_">
			<rect id="XMLID_99_" x="90" y="11.7" class="st0" width="3.3" height="3.3"/>
		</g>
	</g>
	<g id="XMLID_94_">
		<g id="XMLID_95_">
			<rect id="XMLID_96_" x="83.3" y="11.7" class="st0" width="3.3" height="3.3"/>
		</g>
	</g>
	<g id="XMLID_91_">
		<g id="XMLID_92_">
			<rect id="XMLID_93_" x="76.7" y="11.7" class="st0" width="3.3" height="3.3"/>
		</g>
	</g>
	<g id="XMLID_88_">
		<g id="XMLID_89_">
			<rect id="XMLID_90_" x="20" y="11.7" class="st0" width="3.3" height="3.3"/>
		</g>
	</g>
	<g id="XMLID_85_">
		<g id="XMLID_86_">
			<rect id="XMLID_87_" x="13.3" y="11.7" class="st0" width="3.3" height="3.3"/>
		</g>
	</g>
	<g id="XMLID_82_">
		<g id="XMLID_83_">
			<rect id="XMLID_84_" x="6.7" y="11.7" class="st0" width="3.3" height="3.3"/>
		</g>
	</g>
	<g id="XMLID_81_">
	</g>
	<g id="XMLID_80_">
	</g>
	<g id="XMLID_79_">
	</g>
	<g id="XMLID_78_">
	</g>
	<g id="XMLID_77_">
	</g>
	<g id="XMLID_76_">
	</g>
	<g id="XMLID_75_">
	</g>
	<g id="XMLID_74_">
	</g>
	<g id="XMLID_73_">
	</g>
	<g id="XMLID_72_">
	</g>
	<g id="XMLID_71_">
	</g>
	<g id="XMLID_70_">
	</g>
	<g id="XMLID_69_">
	</g>
	<g id="XMLID_68_">
	</g>
	<g id="XMLID_67_">
	</g>
</g>
</svg>
