<?xml version="1.0" encoding="utf-8"?>
<!-- Generator: Adobe Illustrator 19.0.0, SVG Export Plug-In . SVG Version: 6.00 Build 0)  -->
<svg version="1.1" id="Layer_1" xmlns="http://www.w3.org/2000/svg" xmlns:xlink="http://www.w3.org/1999/xlink" x="0px" y="0px"
	 viewBox="0 0 100 80.2" style="enable-background:new 0 0 100 80.2;" xml:space="preserve">
<style type="text/css">
	.st0{fill:#FFFFFF;}
</style>
<g id="XMLID_224_">
	<g id="XMLID_260_">
		<g id="XMLID_261_">
			<path id="XMLID_262_" class="st0" d="M72.7,0H5.6C2.5,0,0,2.5,0,5.6v40.2c0,3.1,2.5,5.6,5.6,5.6H10v15c0,1,0.6,1.8,1.5,2.2
				c0.3,0.1,0.6,0.2,0.9,0.2c0.6,0,1.2-0.2,1.7-0.7l16.7-16.7H34c1.3,0,2.4-1.1,2.4-2.4c0-1.3-1.1-2.4-2.4-2.4c0,0-4.4,0-4.5,0
				c-0.5,0-1.1,0.3-1.5,0.7L14.7,60.8c0,0,0-11.8,0-11.9c-0.1-1.2-1.1-2.1-2.3-2.1H5.6c-0.5,0-0.9-0.4-0.9-0.9V5.6
				c0-0.5,0.4-0.9,0.9-0.9h67.1c0.5,0,0.9,0.4,0.9,0.9v15.4c0,1.3,1.1,2.4,2.4,2.4s2.4-1.1,2.4-2.4V5.6C78.3,2.5,75.8,0,72.7,0z"/>
		</g>
	</g>
	<g id="XMLID_255_">
		<g id="XMLID_256_">
			<path id="XMLID_257_" class="st0" d="M94.4,28.9h-47c-3.1,0-5.6,2.5-5.6,5.6v27.5c0,3.1,2.5,5.6,5.6,5.6h29.4l11.9,11.9
				c0.5,0.5,1.1,0.7,1.7,0.7c0.3,0,0.6-0.1,0.9-0.2c0.9-0.4,1.5-1.2,1.5-2.2V67.6h1.6c3.1,0,5.6-2.5,5.6-5.6V34.5
				C100,31.4,97.5,28.9,94.4,28.9z M95.3,61.9c0,0.5-0.4,0.9-0.9,0.9h-4c-1.2,0-2.3,1-2.3,2.2c0,0.1,0,7.1,0,7.1l-8.6-8.6
				c0,0,0,0,0,0c0,0-0.1-0.1-0.1-0.1c-0.4-0.4-1-0.6-1.6-0.6H47.4c-0.5,0-0.9-0.4-0.9-0.9V34.5c0-0.5,0.4-0.9,0.9-0.9h47
				c0.5,0,0.9,0.4,0.9,0.9V61.9z"/>
		</g>
	</g>
	<g id="XMLID_252_">
		<g id="XMLID_253_">
			<path id="XMLID_254_" class="st0" d="M70.9,45.9c-1.3,0-2.4,1.1-2.4,2.4c0,1.3,1.1,2.4,2.4,2.4c1.3,0,2.4-1.1,2.4-2.4
				C73.3,46.9,72.2,45.9,70.9,45.9z"/>
		</g>
	</g>
	<g id="XMLID_249_">
		<g id="XMLID_250_">
			<path id="XMLID_251_" class="st0" d="M60.6,15.6H17.7c-1.3,0-2.4,1.1-2.4,2.4s1.1,2.4,2.4,2.4h42.9c1.3,0,2.4-1.1,2.4-2.4
				S61.9,15.6,60.6,15.6z"/>
		</g>
	</g>
	<g id="XMLID_246_">
		<g id="XMLID_247_">
			<path id="XMLID_248_" class="st0" d="M34,31.2H17.7c-1.3,0-2.4,1.1-2.4,2.4c0,1.3,1.1,2.4,2.4,2.4H34c1.3,0,2.4-1.1,2.4-2.4
				C36.4,32.2,35.3,31.2,34,31.2z"/>
		</g>
	</g>
	<g id="XMLID_243_">
		<g id="XMLID_244_">
			<path id="XMLID_245_" class="st0" d="M59.9,45.9c-1.3,0-2.4,1.1-2.4,2.4c0,1.3,1.1,2.4,2.4,2.4c1.3,0,2.4-1.1,2.4-2.4
				C62.3,46.9,61.2,45.9,59.9,45.9z"/>
		</g>
	</g>
	<g id="XMLID_240_">
		<g id="XMLID_241_">
			<path id="XMLID_242_" class="st0" d="M81.9,45.9c-1.3,0-2.4,1.1-2.4,2.4c0,1.3,1.1,2.4,2.4,2.4c1.3,0,2.4-1.1,2.4-2.4
				C84.2,46.9,83.2,45.9,81.9,45.9z"/>
		</g>
	</g>
	<g id="XMLID_239_">
	</g>
	<g id="XMLID_238_">
	</g>
	<g id="XMLID_237_">
	</g>
	<g id="XMLID_236_">
	</g>
	<g id="XMLID_235_">
	</g>
	<g id="XMLID_234_">
	</g>
	<g id="XMLID_233_">
	</g>
	<g id="XMLID_232_">
	</g>
	<g id="XMLID_231_">
	</g>
	<g id="XMLID_230_">
	</g>
	<g id="XMLID_229_">
	</g>
	<g id="XMLID_228_">
	</g>
	<g id="XMLID_227_">
	</g>
	<g id="XMLID_226_">
	</g>
	<g id="XMLID_225_">
	</g>
</g>
</svg>
