<?xml version="1.0" encoding="utf-8"?>
<!-- Generator: Adobe Illustrator 19.0.0, SVG Export Plug-In . SVG Version: 6.00 Build 0)  -->
<svg version="1.1" id="Layer_1" xmlns="http://www.w3.org/2000/svg" xmlns:xlink="http://www.w3.org/1999/xlink" x="0px" y="0px"
	 viewBox="-269 191 100 100" style="enable-background:new -269 191 100 100;" xml:space="preserve">
<style type="text/css">
	.st0{fill:#FFFFFF;}
</style>
<g id="XMLID_36_">
	<g id="_x34_4-18Plus_movie_1_">
		<g id="XMLID_61_">
			<path id="XMLID_62_" class="st0" d="M-237.4,258v-27.1h-6.3v-7h14.9V258H-237.4L-237.4,258z"/>
		</g>
		<g id="XMLID_56_">
			<path id="XMLID_57_" class="st0" d="M-196.2,232.7c0,3-1.6,5.6-4.3,7.1c3.7,1.6,6.1,4.8,6.1,8.6c0,6.1-5.4,10-14,10
				c-8.5,0-14-3.8-14-9.9c0-3.9,2.5-7.2,6.5-8.8c-2.9-1.6-4.7-4.3-4.7-7.3c0-5.4,4.8-8.9,12.2-8.9
				C-200.9,223.6-196.2,227.1-196.2,232.7z M-214.1,247.7c0,2.9,2,4.5,5.8,4.5c3.7,0,5.8-1.6,5.8-4.5c0-2.8-2.1-4.4-5.8-4.4
				C-212.1,243.2-214.1,244.8-214.1,247.7z M-213.2,233.2c0,2.4,1.8,3.8,4.9,3.8c3.2,0,4.9-1.4,4.9-3.8c0-2.5-1.8-3.9-4.9-3.9
				C-211.5,229.3-213.2,230.7-213.2,233.2z"/>
		</g>
		<g id="XMLID_54_">
			<path id="XMLID_55_" class="st0" d="M-179.9,227.8c1.4,4.2,2.2,8.7,2.2,13.2c0,22.7-18.5,41.2-41.2,41.2s-41.2-18.5-41.2-41.2
				c0-22.7,18.5-41.2,41.2-41.2c4.5,0,9,0.7,13.2,2.2v-9.2c-4.3-1.2-8.7-1.8-13.2-1.8c-27.6,0-50,22.4-50,50s22.4,50,50,50
				s50-22.4,50-50c0-4.5-0.6-8.9-1.8-13.2H-179.9z"/>
		</g>
		<g id="XMLID_52_">
			<polygon id="XMLID_53_" class="st0" points="-182.4,204.4 -182.4,194.8 -189.3,194.8 -189.3,204.4 -198.9,204.4 -198.9,211.3 
				-189.3,211.3 -189.3,220.9 -182.4,220.9 -182.4,211.3 -172.9,211.3 -172.9,204.4 			"/>
		</g>
	</g>
	<g id="XMLID_51_">
	</g>
	<g id="XMLID_50_">
	</g>
	<g id="XMLID_49_">
	</g>
	<g id="XMLID_48_">
	</g>
	<g id="XMLID_47_">
	</g>
	<g id="XMLID_46_">
	</g>
	<g id="XMLID_45_">
	</g>
	<g id="XMLID_44_">
	</g>
	<g id="XMLID_43_">
	</g>
	<g id="XMLID_42_">
	</g>
	<g id="XMLID_41_">
	</g>
	<g id="XMLID_40_">
	</g>
	<g id="XMLID_39_">
	</g>
	<g id="XMLID_38_">
	</g>
	<g id="XMLID_37_">
	</g>
</g>
</svg>
