<?xml version="1.0" encoding="utf-8"?>
<!-- Generator: Adobe Illustrator 19.0.0, SVG Export Plug-In . SVG Version: 6.00 Build 0)  -->
<svg version="1.1" id="Layer_1" xmlns="http://www.w3.org/2000/svg" xmlns:xlink="http://www.w3.org/1999/xlink" x="0px" y="0px"
	 viewBox="0 0 140.4 103.5" style="enable-background:new 0 0 140.4 103.5;" xml:space="preserve">
<style type="text/css">
	.st0{fill:#5A4247;}
	.st1{fill:#694B4B;}
	.st2{fill:#E5AF78;}
	.st3{fill:#D19A6E;}
	.st4{fill:#D4DBEB;}
	.st5{fill:#AEB8D0;}
	.st6{fill:#EEBF85;}
	.st7{fill:#C6CEE1;}
	.st8{fill:#949BB4;}
	.st9{fill:#EE517D;}
	.st10{fill:#717586;}
	.st11{fill:#5C5D6E;}
	.st12{fill:#D23D69;}
</style>
<g id="XMLID_27_">
	<path id="XMLID_206_" class="st0" d="M101.9,43v1.6c0,1.9,0.3,3.9,0.9,5.7l3.6,10.8h6.8V36.2h-4.5C104.9,36.2,101.9,39.3,101.9,43z
		"/>
	<path id="XMLID_205_" class="st1" d="M132.9,47.7l-3.8,13.4L111,45.3c-2.5,0-4.5-2-4.5-4.5l0,0c0-3.8,3-6.8,6.8-6.8h15.9
		c2.5,0,4.5,2,4.5,4.5v4.3C133.6,44.4,133.4,46.1,132.9,47.7z"/>
	<rect id="XMLID_204_" x="110.9" y="67.9" class="st2" width="13.6" height="10"/>
	<path id="XMLID_203_" class="st3" d="M111,72.1c2.1,0.9,4.4,1.3,6.8,1.3c2.4,0,4.7-0.5,6.8-1.3v-4.2H111L111,72.1L111,72.1z"/>
	<path id="XMLID_202_" class="st4" d="M135.5,76.5l-10.9-3.1l-6.8,4.5l-6.8-4.5L100,76.5c-2.9,0.8-4.9,3.5-4.9,6.5v16.6
		c0,1.3,1,2.3,2.3,2.3h40.8c1.3,0,2.3-1,2.3-2.3V83.1C140.4,80,138.4,77.4,135.5,76.5z"/>
	<polygon id="XMLID_201_" class="st5" points="120,101.9 115.5,101.9 116.6,78 118.9,78 	"/>
	<path id="XMLID_200_" class="st6" d="M117.7,70.2L117.7,70.2c-7.5,0-13.6-6.1-13.6-13.6V54c0-1.2,0.5-2.4,1.3-3.2l4.1-4.1
		c0.9-0.9,2.1-1.4,3.3-1.3c7.2,0.2,13.6,1.8,17.1,5.2c0.9,0.8,1.3,2,1.3,3.2v2.9C131.3,64.1,125.2,70.2,117.7,70.2z"/>
	<path id="XMLID_199_" class="st2" d="M111,54.5c0-2.6,2.2-4.7,4.8-4.5c4.6,0.3,11.4,1.1,15.5,3.1c-0.1-1-0.5-1.9-1.2-2.5
		c-3.5-3.4-9.9-5-17.1-5.2l0,0v0c-1.2,0-2.4,0.5-3.3,1.3l-4.1,4.1c-0.8,0.8-1.3,2-1.3,3.2v2.7c0,6.2,4.2,11.4,9.8,13
		c-1.9-2.3-3-5.3-3-8.5L111,54.5L111,54.5z"/>
	<path id="XMLID_198_" class="st7" d="M131.3,89.8c0-1.8,0.7-3.5,2-4.8l5.8-5.8c0.8,1.1,1.2,2.5,1.2,3.9v16.6c0,1.3-1,2.3-2.3,2.3
		h-6.8L131.3,89.8L131.3,89.8z"/>
	<path id="XMLID_197_" class="st8" d="M118.9,82.5h-2.3c-0.6,0-1.1-0.5-1.1-1.1V78h4.5v3.4C120,82,119.5,82.5,118.9,82.5z"/>
	<g id="XMLID_194_">
		<path id="XMLID_196_" class="st7" d="M117.7,77.9l-3.8,2.9c-0.7,0.5-1.6,0.3-2-0.4l-3.4-6.3l1.4-2.1c0.3-0.5,1-0.5,1.4-0.2
			L117.7,77.9z"/>
		<path id="XMLID_195_" class="st7" d="M117.7,77.9l3.8,2.9c0.7,0.5,1.6,0.3,2-0.4l3.4-6.3l-1.4-2.1c-0.3-0.5-1-0.5-1.4-0.2
			L117.7,77.9z"/>
	</g>
	<path id="XMLID_193_" class="st0" d="M40.5,69.2c-1.9-5.1-3.5-13.9-3.8-18.5c-0.6-8.7-7.2-15.9-16.1-15.9S5.1,42,4.5,50.7
		c-0.3,4.6-1.9,13.4-3.8,18.5c-0.4,1.1,0.1,2.4,1.2,2.9c2.1,0.9,6.5,2.8,11.8,3.5h13.8c5.3-0.7,9.8-2.6,11.8-3.5
		C40.5,71.6,41,70.4,40.5,69.2z"/>
	<path id="XMLID_192_" class="st1" d="M39.4,72.1c1.1-0.5,1.6-1.8,1.2-2.9c-1.9-5.1-3.5-13.9-3.8-18.5c-0.6-8.7-7.2-15.9-16.1-15.9
		c0,0,0,0-0.1,0c-6.8,0-9.2,9.3-3.4,12.8c0.4,0.2,0.6,0.3,0.6,0.3l5.1,27.6h4.6C32.8,74.9,37.3,73.1,39.4,72.1z"/>
	<path id="XMLID_191_" class="st2" d="M37,80.2l-7.3-3.7c-1.5-0.8-2.5-2.3-2.5-4.1l0-6.8H13.6v6.8c0,1.7-1,3.3-2.5,4.1l-7.3,3.7
		C1.5,81.3,0,83.7,0,86.2v13.4c0,1.3,1,2.3,2.3,2.3h36.2c1.3,0,2.3-1,2.3-2.3V86.2C40.8,83.7,39.3,81.3,37,80.2z"/>
	<path id="XMLID_190_" class="st3" d="M20.4,74.7c2.4,0,4.8-0.5,6.9-1.4c-0.1-0.3-0.1-0.6-0.1-0.9l0-6.8H13.6v6.8
		c0,0.3-0.1,0.6-0.1,0.9C15.6,74.2,17.9,74.7,20.4,74.7z"/>
	<path id="XMLID_189_" class="st4" d="M37,80.2l-5.2-2.6c-2.4,3.7-6.6,6.2-11.4,6.2s-9-2.5-11.4-6.2l-5.2,2.6
		C1.5,81.3,0,83.7,0,86.2v13.4c0,1.3,1,2.3,2.3,2.3h36.2c1.3,0,2.3-1,2.3-2.3V86.2C40.8,83.7,39.3,81.3,37,80.2z"/>
	<path id="XMLID_188_" class="st6" d="M20.4,70.2L20.4,70.2c-6.9,0-12.6-5.2-13.5-11.8c-0.1-1,0.3-1.9,1.2-2.4c1-0.5,2.6-1.4,4-2.7
		c1.6-1.4,2.6-3,3.1-4.1c0.5-1,1.5-1.5,2.6-1.2c8,2,13.4,6.2,15.4,7.9c0.5,0.5,0.8,1.1,0.8,1.8C33.4,64.7,27.5,70.2,20.4,70.2z"/>
	<path id="XMLID_187_" class="st2" d="M33.1,55.9c-2-1.7-7.4-5.8-15.4-7.9c-1-0.3-2.1,0.3-2.6,1.2c-0.4,0.8-1.1,1.9-2.1,3
		c0,0,0,0,0,0c-0.3,0.3-0.6,0.7-1,1c-1.5,1.3-3,2.2-4,2.7c-0.9,0.4-1.3,1.4-1.2,2.4c0.8,6,5.5,10.8,11.4,11.7
		c-2.7-1.8-4.7-4.4-4.7-8.9v-3.2c0.5-0.4,1-0.8,1.6-1.2c1.3-1.1,2.4-2.4,3.2-3.8c6.1,1.9,10.2,5.1,11.8,6.4c0.4,0.4,1.5,1.4,2.7,2.5
		c0.5-1.3,0.9-2.7,1-4.1C34,57,33.7,56.3,33.1,55.9z"/>
	<path id="XMLID_186_" class="st7" d="M1.4,82.2C0.5,83.3,0,84.7,0,86.2v13.4c0,1.3,1,2.3,2.3,2.3h6.8V90.5c0-1.4-0.6-2.7-1.7-3.5
		L1.4,82.2z"/>
	<path id="XMLID_185_" class="st9" d="M102.7,77.1l-18.9-6.9l-13.6,4.5l-13.6-4.5l-18.9,6.9c-3.6,1.3-6,4.7-6,8.5v14
		c0,1.3,1,2.3,2.3,2.3h72.5c1.3,0,2.3-1,2.3-2.3v-14C108.7,81.8,106.3,78.4,102.7,77.1z"/>
	<polygon id="XMLID_184_" class="st10" points="67.8,79.3 65.7,101.9 74.7,101.9 72.6,79.3 	"/>
	<path id="XMLID_183_" class="st11" d="M72.6,82.4h-4.8c-0.9,0-1.6-0.7-1.6-1.6v-6.1h7.9v6.1C74.2,81.7,73.4,82.4,72.6,82.4z"/>
	<path id="XMLID_182_" class="st12" d="M106.2,79.4c1.5,1.6,2.4,3.8,2.4,6.2v14c0,1.3-1,2.3-2.3,2.3H95.1v-7.6c0-2.4,1-4.7,2.7-6.4
		L106.2,79.4z"/>
	<path id="XMLID_181_" class="st0" d="M95.1,23.5v-19c0-2.5-2-4.5-4.5-4.5H63.4c-10,0-18.1,8.1-18.1,18.1v5.4c0,2.4,0.4,4.9,1.2,7.2
		l0.8,2.3c0.2,0.7,0.3,1.4,0.3,2.1v1.2h45.3v-1.2c0-0.7,0.1-1.5,0.3-2.1l0.8-2.3C94.7,28.3,95.1,25.9,95.1,23.5z"/>
	<path id="XMLID_180_" class="st1" d="M56.6,9.2c0,5.1,4.1,9.2,9.2,9.2h1.3l0.6,17.8h25.1v-1.2c0-0.7,0.1-1.5,0.3-2.1l0.8-2.3
		c0.8-2.3,1.2-4.7,1.2-7.2v-19c0-2.5-2-4.5-4.5-4.5H65.8C60.7,0,56.6,4.1,56.6,9.2z"/>
	<rect id="XMLID_179_" x="56.6" y="54.3" class="st2" width="27.2" height="20.4"/>
	<path id="XMLID_178_" class="st3" d="M56.6,62c4,2.3,8.6,3.7,13.6,3.7s9.6-1.3,13.6-3.7v-7.7H56.6L56.6,62L56.6,62z"/>
	<g id="XMLID_175_">
		<path id="XMLID_177_" class="st12" d="M70.2,74.7L63,81.9c-1,1-2.6,0.9-3.4-0.2l-7.5-9.9l2-4.1c0.6-1.2,2.1-1.7,3.2-1L70.2,74.7z"
			/>
		<path id="XMLID_176_" class="st12" d="M70.2,74.7l7.2,7.2c1,1,2.6,0.9,3.4-0.2l7.5-9.9l-2-4.1c-0.6-1.2-2.1-1.7-3.2-1L70.2,74.7z"
			/>
	</g>
	<path id="XMLID_174_" class="st6" d="M70.2,61.1L70.2,61.1c-12.5,0-22.6-10.1-22.6-22.6v-2.7c0-1.2,0.5-2.4,1.3-3.2l1.9-1.9
		c0.8-0.8,1.3-2,1.3-3.2v-5.4c0-1,0.7-2,1.7-2.2c5.4-1.3,22-4.3,33.4,4.1c0.7,0.5,1.1,1.4,1.1,2.3v1.2c0,1.2,0.5,2.4,1.3,3.2
		l1.9,1.9c0.8,0.8,1.3,2,1.3,3.2v2.7C92.8,51,82.7,61.1,70.2,61.1z"/>
	<path id="XMLID_173_" class="st2" d="M87.2,24c-8-5.9-18.6-6.1-26-5.3c-3.1,0.3-5.7,0.9-7.3,1.2c-1,0.2-1.7,1.2-1.7,2.2v5.4
		c0,1.2-0.5,2.4-1.3,3.2l-1.9,1.9c-0.8,0.8-1.3,2-1.3,3.2v2.7c0,11.6,8.7,21.1,19.9,22.5c-3.9-4.1-6.3-9.6-6.3-15.7V28.7
		c0-2.3,1.7-4.2,4-4.5c5.4-0.7,15.4-1.1,23.2,3.3v-1.2C88.3,25.4,87.9,24.6,87.2,24z"/>
	<path id="XMLID_172_" class="st12" d="M34.1,79.4c-1.5,1.6-2.4,3.8-2.4,6.2v14c0,1.3,1,2.3,2.3,2.3h11.3v-7.6c0-2.4-1-4.7-2.7-6.4
		L34.1,79.4z"/>
	<g id="XMLID_171_">
	</g>
	<g id="XMLID_170_">
	</g>
	<g id="XMLID_169_">
	</g>
	<g id="XMLID_168_">
	</g>
	<g id="XMLID_167_">
	</g>
	<g id="XMLID_166_">
	</g>
	<g id="XMLID_40_">
	</g>
	<g id="XMLID_39_">
	</g>
	<g id="XMLID_38_">
	</g>
	<g id="XMLID_37_">
	</g>
	<g id="XMLID_36_">
	</g>
	<g id="XMLID_35_">
	</g>
	<g id="XMLID_34_">
	</g>
	<g id="XMLID_33_">
	</g>
	<g id="XMLID_32_">
	</g>
</g>
</svg>
