<?xml version="1.0" encoding="utf-8"?>
<!-- Generator: Adobe Illustrator 19.0.0, SVG Export Plug-In . SVG Version: 6.00 Build 0)  -->
<svg version="1.1" id="Layer_1" xmlns="http://www.w3.org/2000/svg" xmlns:xlink="http://www.w3.org/1999/xlink" x="0px" y="0px"
	 viewBox="0 0 124.6 103.5" style="enable-background:new 0 0 124.6 103.5;" xml:space="preserve">
<style type="text/css">
	.st0{fill:#E1574C;}
	.st1{fill:#D15047;}
	.st2{fill:#E3E5E5;}
	.st3{fill:#334E5C;}
	.st4{fill:#75C8B5;}
	.st5{fill:#5BAD95;}
	.st6{fill:#A8DAD1;}
	.st7{fill:#52806D;}
	.st8{fill:#624A51;}
	.st9{fill:#546A79;}
	.st10{fill:#38454F;}
	.st11{fill:#6C7A7A;}
	.st12{fill:none;stroke:#38454F;stroke-width:2;stroke-linecap:round;stroke-linejoin:round;stroke-miterlimit:10;}
	.st13{fill:#43AF5B;}
</style>
<g id="XMLID_27_">
	<g id="XMLID_43_">
		<path id="XMLID_83_" class="st0" d="M33.4,10.3C14.5,11.2,0,27.3,0,46.2v17.7l0,0c0,4.2,0,12.8,0,17.5c0,1.6,1.6,2.6,3,1.6
			l5.4-3.3c2.1-1.2,4.7-1.2,6.8,0l4.9,2.8c2.1,1.2,4.7,1.2,6.8,0l4.9-2.8c2.1-1.2,4.7-1.2,6.8,0l4.9,2.8c2.1,1.2,4.7,1.2,6.8,0
			l4.9-2.8c2.1-1.2,4.7-1.2,6.8,0l5.1,3c1.4,0.7,3-0.2,3-1.6c0-4.9,0-13.5,0-17.5l0,0V45C70,25.4,53.4,9.3,33.4,10.3z"/>
		<g id="XMLID_79_">
			<g id="XMLID_80_">
				<g id="XMLID_81_">
					<path id="XMLID_82_" class="st1" d="M4.7,45.3c0-18.4,14.5-33.6,32.7-35c-0.7,0-1.6,0-2.3,0c-19.4,0-35,15.6-35,35
						c0,0,0,39.4,0,39.7c2.1,0,3.5-0.9,4.7-2.1C4.7,78.6,4.7,45.3,4.7,45.3z"/>
				</g>
			</g>
		</g>
		<path id="XMLID_76_" class="st2" d="M47.8,40.6c-4.4,0-8.2,3.7-8.2,8.2s3.7,8.2,8.2,8.2s8.2-3.7,8.2-8.2S52.3,40.6,47.8,40.6z
			 M22.2,40.6c-4.4,0-8.2,3.7-8.2,8.2s3.7,8.2,8.2,8.2s8.2-3.7,8.2-8.2S26.6,40.6,22.2,40.6z"/>
		<path id="XMLID_44_" class="st3" d="M47.8,45.3c-1.9,0-3.5,1.6-3.5,3.5c0,1.9,1.6,3.5,3.5,3.5c1.9,0,3.5-1.6,3.5-3.5
			C51.3,46.9,49.7,45.3,47.8,45.3z M22.2,45.3c-1.9,0-3.5,1.6-3.5,3.5c0,1.9,1.6,3.5,3.5,3.5c1.9,0,3.5-1.6,3.5-3.5
			C25.7,46.9,24,45.3,22.2,45.3z"/>
	</g>
	<g id="XMLID_42_">
	</g>
	<g id="XMLID_41_">
	</g>
	<g id="XMLID_40_">
	</g>
	<g id="XMLID_39_">
	</g>
	<g id="XMLID_38_">
	</g>
	<g id="XMLID_37_">
	</g>
	<g id="XMLID_36_">
	</g>
	<g id="XMLID_35_">
	</g>
	<g id="XMLID_34_">
	</g>
	<g id="XMLID_33_">
	</g>
	<g id="XMLID_32_">
	</g>
	<g id="XMLID_31_">
	</g>
	<g id="XMLID_30_">
	</g>
	<g id="XMLID_29_">
	</g>
	<g id="XMLID_28_">
	</g>
</g>
<g id="XMLID_139_">
	<g id="XMLID_155_">
		<polygon id="XMLID_165_" class="st4" points="99.2,34.5 36.3,97.3 34.9,84.5 92.7,30.8 		"/>
		<polygon id="XMLID_164_" class="st5" points="99.2,34.5 36.3,97.3 49.2,98.8 102.9,41 		"/>
		<polygon id="XMLID_163_" class="st4" points="36.3,97.3 31.8,99 30.2,103.5 50.5,103.5 105,43.2 102.9,38.1 47.8,97.4 		"/>
		<polygon id="XMLID_162_" class="st6" points="36.3,97.3 30.2,103.5 30.2,83.2 90.5,28.7 95.6,30.8 36.3,85.9 		"/>
		<path id="XMLID_161_" class="st7" d="M93.3,14.3c-2.4-2.4-6.3-2.4-8.7,0l1.5,7.3l7.3,1.5C95.7,20.6,95.7,16.7,93.3,14.3z"/>
		<path id="XMLID_160_" class="st8" d="M119.4,40.4c-2.4-2.4-6.3-2.4-8.7,0l1.5,7.3l7.3,1.5C121.8,46.7,121.8,42.8,119.4,40.4z"/>
		<path id="XMLID_159_" class="st8" d="M100.5,33l7.1-10l14.9-12c2.8,2.8,2.8,7.4,0,10.2l-16.9,16.9L100.5,33z"/>
		<path id="XMLID_158_" class="st7" d="M122.5,11l-22,22l-5.1-5.1L112.3,11C115.1,8.2,119.7,8.2,122.5,11z"/>
		<polygon id="XMLID_157_" class="st7" points="119.4,49.1 115,53.5 97.6,36.1 98.3,32.4 102,31.7 		"/>
		
			<rect id="XMLID_156_" x="88" y="12.8" transform="matrix(0.7071 -0.7071 0.7071 0.7071 8.8782 71.7736)" class="st5" width="6.2" height="24.7"/>
	</g>
	<g id="XMLID_154_">
	</g>
	<g id="XMLID_153_">
	</g>
	<g id="XMLID_152_">
	</g>
	<g id="XMLID_151_">
	</g>
	<g id="XMLID_150_">
	</g>
	<g id="XMLID_149_">
	</g>
	<g id="XMLID_148_">
	</g>
	<g id="XMLID_147_">
	</g>
	<g id="XMLID_146_">
	</g>
	<g id="XMLID_145_">
	</g>
	<g id="XMLID_144_">
	</g>
	<g id="XMLID_143_">
	</g>
	<g id="XMLID_142_">
	</g>
	<g id="XMLID_141_">
	</g>
	<g id="XMLID_140_">
	</g>
</g>
<g id="XMLID_45_">
	<path id="XMLID_73_" class="st9" d="M105.8,50.5l-13-2.3v19h10.1C103.1,61.6,105.8,50.5,105.8,50.5z"/>
	<path id="XMLID_72_" class="st9" d="M73.8,50.5c0,0,2.7,11.1,2.9,16.7h10.1v-19L73.8,50.5z"/>
	<path id="XMLID_71_" class="st10" d="M102.8,70.7c0-0.8,0-2.7,0.1-3.5H76.7c0,0.8,0.1,2.7,0.1,3.5c0,4.4-0.5,7.1-1.4,9.7
		c-1.1,3.1-1.6,6.3-1.3,9.5c0,0.6,0.1,1.1,0.2,1.3c1.6,6.9,8,12,15.6,12c7.6,0,13.9-5.1,15.6-12c0.1-0.2,0.1-0.7,0.2-1.3
		c0.3-3.2-0.3-6.5-1.3-9.5C103.3,77.8,102.8,75.1,102.8,70.7z"/>
	<rect id="XMLID_70_" x="86.8" y="56.2" class="st10" width="6" height="1"/>
	<rect id="XMLID_69_" x="86.8" y="52.2" class="st10" width="6" height="2"/>
	<rect id="XMLID_68_" x="86.8" y="59.2" class="st10" width="6" height="1"/>
	<rect id="XMLID_67_" x="86.8" y="62.2" class="st10" width="6" height="5.7"/>
	<rect id="XMLID_66_" x="86.8" y="54.2" class="st11" width="6" height="2"/>
	<rect id="XMLID_65_" x="86.8" y="57.2" class="st11" width="6" height="2"/>
	<rect id="XMLID_64_" x="86.8" y="60.2" class="st11" width="6" height="2"/>
	<line id="XMLID_63_" class="st12" x1="89.8" y1="52.2" x2="89.8" y2="45.2"/>
	<path id="XMLID_62_" class="st9" d="M89.8,74.2c-0.6,0-1-0.4-1-1v-6c0-0.6,0.4-1,1-1c0.6,0,1,0.4,1,1v6
		C90.8,73.8,90.4,74.2,89.8,74.2z"/>
	<circle id="XMLID_61_" class="st13" cx="89.8" cy="92.2" r="4"/>
	<g id="XMLID_60_">
	</g>
	<g id="XMLID_59_">
	</g>
	<g id="XMLID_58_">
	</g>
	<g id="XMLID_57_">
	</g>
	<g id="XMLID_56_">
	</g>
	<g id="XMLID_55_">
	</g>
	<g id="XMLID_54_">
	</g>
	<g id="XMLID_53_">
	</g>
	<g id="XMLID_52_">
	</g>
	<g id="XMLID_51_">
	</g>
	<g id="XMLID_50_">
	</g>
	<g id="XMLID_49_">
	</g>
	<g id="XMLID_48_">
	</g>
	<g id="XMLID_47_">
	</g>
	<g id="XMLID_46_">
	</g>
</g>
</svg>
