<?xml version="1.0" encoding="utf-8"?>
<!-- Generator: Adobe Illustrator 19.0.0, SVG Export Plug-In . SVG Version: 6.00 Build 0)  -->
<svg version="1.1" xmlns="http://www.w3.org/2000/svg" xmlns:xlink="http://www.w3.org/1999/xlink" x="0px" y="0px"
	 viewBox="0 0 1497.2 411.4" style="enable-background:new 0 0 1497.2 411.4;" xml:space="preserve">
<style type="text/css">
	.st0{fill:#FFFFFF;}
	.st1{fill:#212121;}
	.st2{fill:#F12A27;}
</style>
<g id="Outer_Ring">
	<circle class="st0" cx="205.8" cy="205.6" r="205.1"/>
</g>
<g id="Planet">
	<g>
		<path class="st1" d="M177.5,217.2c-34.8,4-39.8,39.2-31.9,54.6C162.7,258,171.8,240.6,177.5,217.2z"/>
		<path class="st1" d="M277.3,24.5c-22.3-9-46.7-13.9-72.2-13.9c-99.8,0-181.9,75.5-192.4,172.5c5.3,1.7,21.3,13.2,28.4,32.9
			c10.1,7.1,16.9,18.1,20.8,30.3c4.6,0.6,10.5,3.4,15.9,8.1c4.4-1.1,9-1.2,13.5-0.7c-6.2-14.8-9.7-31-9.7-48.1
			c0-65.1,50.2-118.5,114-123.6c0.8-5.7,1.6-11.6,2.6-17.6c-3.5,0.1-7.4,0.3-12.5,0.5c0,0,0,0,0,0c-0.2,0-0.4-0.1-0.5-0.3
			c-0.1-0.2,0-0.4,0.1-0.6c10.3-8.8,15-21.5,19.2-39.2c0.1-0.2,0.3-0.4,0.5-0.4c0,0,0,0,0,0c0.2,0,0.4,0.2,0.5,0.4
			c4.3,17.2,9,30.5,18.2,39.1c0.2,0.1,0.2,0.4,0.1,0.6s-0.3,0.3-0.5,0.3c-4.7-0.3-8.3-0.4-11.6-0.5c0.9,6,1.7,11.8,2.5,17.5
			c44,3,81.6,29,101.1,66c0-0.1-0.1-0.2-0.1-0.2c7-3.4,103.4-85.8-7.1-45.3c57.8-23.8,82.4-17.4,10.9,53c0,0,0,0,0,0
			c6.8,15.4,10.6,32.4,10.6,50.3c0,11.3-1.5,22.3-4.4,32.7c0.6,0,1.2,0.1,1.9,0.2c3.6-3.5,20.8-8.8,36.4-1.9
			c15.5-25.6,30.4-34,36.7-38.5C397.6,119,347.4,51.9,277.3,24.5z"/>
		<path class="st1" d="M239,222c25.4-18.5,58.2-53.3,58.2-53.3s-32.8,29.2-63.3,48.2C234.3,219.4,235.7,221.2,239,222z"/>
	</g>
</g>
<g id="Smoke">
	<g>
		<path class="st2" d="M121.2,292.5c8.4,2.7,15.5,9.3,18,16.7c9.3,0.7,18.3,5.9,23.1,13.1c7.2-7.7,15.5-11.1,23.6-11.5
			C177.1,297.7,150.1,280.1,121.2,292.5C121.3,292.6,121.3,292.5,121.2,292.5z"/>
		<path class="st2" d="M400.7,202.8c0,0.1,0,0.2,0,0.3C400.7,202.9,400.7,202.9,400.7,202.8z"/>
		<path class="st2" d="M368.4,239.1c6.1,3.8,11.6,9.8,15.7,18.9c-12.7-17.3-26.1-21-36.3-20.7l-2.3,0.1c-6.2,0.6-10.9,2.4-13.3,3.2
			c3,1.9,5.7,5.1,8.2,9.9c-17.3-20-40.8,1.9-33.9,17.6c-3.4,0.9-13.5,3.6-26.9,17.7c5.7,2.9,11.8,7.2,17.9,13.6
			c-23.5-15.6-36.7-13.4-40.5-13.6c2.9,4.5,4.4,10.7,3.3,18.8c-3.5-35.3-34-24.8-40.9-16.3c1.6-2.2,3.4-4.7,5.9-6.9c0,0,0,0,0,0
			c-10.5-4.2-40.5-21.1-77.9,1.5c15.4,1.1,32.5,8.3,44.3,28.3c5.6,0.7,11,2.8,15.7,6c0,0,0,0,0,0c22.5-10.9,38.3,7.3,39.4,13.1
			c12.9,0.9,24,12.1,21.4,34.4c-0.3-25.8-21-42.5-44.2-24.7c5.5-5.9,12.5-9.2,19.3-9.7c-10.3-16.2-28.9-12.5-32.8-10.8c0,0,0,0,0,0
			c14.4,11.7,21.2,33.5,6.2,53c23-35.5-28.4-86.2-63.4-36.5c2.2-4.4,4.7-8.2,7.4-11.3c-0.1,0-0.1,0.1-0.1,0.1
			c-22.4-25.4-45-4.7-49.1,6c4.8-14.8,14.7-20.9,24.7-21.3c-18.8-26.6-41.1-9.3-48.5,0.3c6.7-13.2,16.2-18.2,25.4-18.2
			c3.3-3.1,11.2-6.6,21.2-8c-17.7-24.4-45.5-25.7-52.2-24.8c8.6,9.8,14.4,24.9,8.2,43.2c2-24.8-8.6-45-26.7-50.4
			c2.6,10.5,3,21.5,1.5,31.4c-4.6-42-17-52.8-20.9-56.2c0.8,4.9,1.1,10.2,0.5,15.9c-2.8-31-24-52-32.6-53.6
			c-4.6,37.9,7,101.9,51,148.1c31.3,33.5,76.1,59.3,134.9,62.4c146.8,2.4,199-118,201.4-172.4c0.3-3.9,0.6-7,0.7-9.7
			c0.3-4.9,0.5-8.1,0.6-10.2C395.5,209,375.5,226.8,368.4,239.1z M144,368.3c0-9.5,6.1-14.8,13.1-16c-9.7-10.3-22.4-1.8-26.3,5.6
			c6.9-18,24.6-13.9,30.2-5.8c7.9,0.4,15.6,6.1,15.6,17.3C173.1,350.7,147.8,350.3,144,368.3z"/>
		<path class="st2" d="M229.7,278.4C229.7,278.4,229.7,278.4,229.7,278.4c2.5-1.1,5.6-1.9,9.5-1.8c4.5,0,9,1.3,12.8,3.9
			c3.2-0.3,9.5-0.6,17.3,1.4c-51.7-33.2-45.1-93.1-63.5-217.6c-0.5,0-0.9,0-1.4,0C187,177.6,194,235.8,154.2,272.4
			C177.4,262.3,210,262.7,229.7,278.4z"/>
	</g>
</g>
<g id="Wordmark">
	<g>
		<path class="st0" d="M604,181.3c-6.7,7.2-15.4,12.7-25.9,16.4c-10.6,3.7-22.3,5.5-35.1,5.5c-5,0-9.8-0.1-14.5-0.4
			c-4.7-0.3-9.1-1.1-13.1-2.6v86.1h-14.1V86.2c6.1-1,13.1-1.9,20.9-2.7c7.8-0.8,16.2-1.2,25.2-1.2c13.1,0,24.2,1.6,33.6,4.6
			c9.3,3.1,16.8,7.6,22.6,13.4c5,4.8,8.8,10.5,11.5,17c2.7,6.5,4,13.9,4,22.3C618.9,157,613.9,170.9,604,181.3z M600.2,119.5
			c-3.1-6-7.3-10.8-12.5-14.6c-5.3-3.7-11.4-6.3-18.4-7.9c-7-1.6-14.4-2.4-22.3-2.4c-7.3,0-13.7,0.3-19.2,0.9
			c-5.5,0.6-9.6,1.2-12.5,1.8v90c4,1.4,8.5,2.4,13.5,2.9c5,0.5,10.3,0.8,15.8,0.8c19.4,0,34.3-4.4,44.6-13.1
			c10.4-8.7,15.6-20.8,15.6-36.4C604.8,132.8,603.3,125.5,600.2,119.5z"/>
		<path class="st0" d="M768.4,292.3c-0.8-1.4-1.6-3.9-2.6-7.4c-1-3.5-2-7.7-3-12.6c-1.1-4.9-2.2-10.3-3.5-16.2
			c-1.3-5.9-2.5-12-3.9-18.5c-3.3-14.6-8.4-25.6-15.3-33c-6.9-7.4-17-11.1-30.2-11.1h-36.9v92.7H659V86.8c6.7-1.4,14.4-2.5,23-3.3
			c8.6-0.8,16.7-1.2,24.2-1.2c13.8,0,25.2,1.5,34.3,4.5c9,3,16.5,7.5,22.5,13.5c4.2,4,7.6,9.1,10.1,15.5c2.5,6.3,3.7,13,3.7,19.9
			c0,13.4-3.7,24.6-11.1,33.5c-7.4,8.9-17,15.3-28.9,19v0.6c8.1,2.8,14.6,7.8,19.7,15c5.1,7.2,8.8,15.9,11.1,26.1
			c3.6,16,6.6,28.3,8.9,36.9c2.3,8.6,4.6,15.1,6.9,19.5L768.4,292.3z M758.2,117.7c-3-5.6-7.1-10.1-12.2-13.6
			c-5.2-3.5-11.2-6-18.1-7.5s-14.2-2.3-21.9-2.3c-8.1,0-14.9,0.4-20.4,1c-5.6,0.7-9.7,1.5-12.4,2.3v84h37.4
			c16.1,0,28.8-3.9,38.2-11.8c9.3-7.9,14-18.5,14-31.7C762.6,130.1,761.2,123.3,758.2,117.7z"/>
		<path class="st0" d="M955.6,289.3l-27.4-74.1h-86.4l-26.8,74.1l-14.7-3l78.3-202.2h13.8l77.8,202.2L955.6,289.3z M896.3,131.8
			c-2.7-6.8-4.8-12.6-6.2-17.4c-1.4-4.8-2.9-9.7-4.5-14.7H885c-1.5,5.2-3.1,10.2-4.8,15c-1.6,4.8-3.6,10.2-5.9,16.2l-27.6,72h76.9
			L896.3,131.8z"/>
		<path class="st0" d="M1122.9,286.3l-32.3-47.7c-7.3-10.8-13.2-19.5-17.7-26.3c-4.5-6.7-8.5-12.8-12-18.1h-0.6
			c-1.7,2.8-3.5,5.7-5.2,8.6c-1.7,2.9-3.7,6.1-5.9,9.4c-2.2,3.4-4.7,7.3-7.5,11.7c-2.8,4.4-6,9.4-9.6,15l-30.2,47.4h-16.7l68-102.3
			l-65.1-99.9h16.7l34.6,54.6c4.8,7.6,9,14.2,12.5,19.8c3.6,5.6,6.9,10.8,9.9,15.6h0.6c3.3-5.2,6.7-10.4,10.4-15.8
			c3.6-5.3,8-11.7,13-19.3l36.9-54.9h17l-69.7,99l69.7,103.2H1122.9z"/>
		<path class="st0" d="M1316.3,241.1c-4.1,11.5-9.7,20.9-16.7,28c-7,7.2-15.1,12.5-24.3,15.8c-9.2,3.3-19,5-29.4,5
			c-9.4,0-18.4-1.6-27.1-4.6c-8.6-3.1-16.3-8.1-22.9-15c-6.6-6.9-11.9-16-15.8-27.3c-3.9-11.3-5.9-25.2-5.9-41.9v-117h14.1v116.7
			c0,13.8,1.5,25.6,4.6,35.3c3.1,9.7,7.2,17.6,12.5,23.7c5.3,6.1,11.5,10.6,18.6,13.5c7.1,2.9,14.7,4.3,22.8,4.3
			c9,0,17.3-1.5,24.8-4.5c7.5-3,14-7.7,19.4-14s9.7-14.3,12.8-23.8c3.1-9.6,4.6-21.1,4.6-34.5V84.1h14.1v115.5
			C1322.5,215.8,1320.4,229.7,1316.3,241.1z"/>
		<path class="st0" d="M1468.8,254.3c-2.5,6.7-6.4,12.7-11.8,18c-5.4,5.3-12.2,9.6-20.6,12.8c-8.4,3.2-18.3,4.8-29.8,4.8
			c-4.6,0-9.4-0.4-14.3-1c-4.9-0.7-9.6-1.7-14.3-3c-4.6-1.3-8.9-2.9-13-4.8c-4-1.9-7.5-3.9-10.4-6.2l5.5-12.3
			c6.3,4.6,13.6,8.3,21.7,11c8.2,2.7,16.9,4,26.4,4c15.7,0,28.1-3.9,37-11.7s13.4-18,13.4-30.6c0-5.8-0.8-11-2.3-15.6
			c-1.5-4.6-4-8.8-7.5-12.6c-3.5-3.8-8-7.2-13.5-10.2c-5.6-3-12.4-5.9-20.4-8.7c-19.4-6.4-33.3-14-41.8-22.8
			c-8.5-8.8-12.7-19.8-12.7-33c0-7.4,1.4-14.3,4.3-20.6c2.9-6.3,7-11.8,12.4-16.5c5.4-4.7,11.7-8.3,19-10.9
			c7.3-2.6,15.5-3.9,24.5-3.9c10.4,0,19.2,1,26.5,3.1c7.3,2.1,12.9,4.5,16.7,7l-5.5,12.3c-2.7-2-7.3-4.2-14-6.8
			c-6.6-2.5-14.7-3.8-24.3-3.8c-8.6,0-15.9,1.2-21.7,3.6c-5.9,2.4-10.6,5.5-14.1,9.3c-3.6,3.8-6.1,7.9-7.6,12.3
			c-1.5,4.4-2.3,8.6-2.3,12.6c0,10.8,3.4,19.6,10.1,26.4c6.7,6.8,18,12.8,33.7,18c8.8,3,16.7,6.3,23.5,9.8
			c6.8,3.5,12.5,7.6,17.1,12.1c4.6,4.6,8.1,9.9,10.4,15.9c2.3,6,3.5,13.1,3.5,21.3C1472.6,240.8,1471.3,247.7,1468.8,254.3z"/>
	</g>
	<g>
		<path class="st0" d="M1283.3,367.9c-0.5-0.2-1.2-0.2-1.9,0c-1.6,0.5-3.5,1-5.8,1.4c-2.3,0.4-4.9,0.6-7.7,0.6
			c-3.9,0-7.5-0.5-10.8-1.6c-3.3-1.1-6.4-3-9.2-5.7c-2.2-2.1-4-4.8-5.3-8.1c-1.3-3.3-2-6.9-2-10.8c0-3,0.6-6,1.7-9.1
			c1.1-3.1,2.9-5.9,5.3-8.4c2.4-2.5,5.4-4.6,9-6.2c3.6-1.6,8-2.4,13.1-2.4c3.1,0,5.9,0.3,8.3,0.9c2.4,0.6,4.1,1.2,5.1,1.7l-1.2,3
			c-1.5-0.7-3.3-1.3-5.3-1.8c-2-0.5-4.3-0.7-7.1-0.7c-4.1,0-7.7,0.6-10.9,1.8c-3.1,1.2-5.8,2.9-7.9,5c-2.1,2.1-3.7,4.5-4.8,7.3
			c-1.1,2.8-1.6,5.8-1.6,9c0,3.3,0.5,6.4,1.6,9.2c1.1,2.8,2.7,5.2,4.7,7.3c2.1,2.1,4.6,3.6,7.6,4.8c3,1.1,6.4,1.7,10.2,1.7
			c3.1,0,5.7-0.2,7.7-0.6c2-0.4,3.6-0.9,4.8-1.5v-17.6h-13v-3h16.6v24.1C1284.3,368.2,1283.8,368.1,1283.3,367.9z"/>
		<path class="st0" d="M1324.3,370.9c-0.2-0.4-0.4-1-0.7-1.9c-0.2-0.9-0.5-2-0.8-3.2c-0.3-1.2-0.6-2.6-0.9-4.1
			c-0.3-1.5-0.7-3.1-1-4.7c-0.8-3.7-2.2-6.5-3.9-8.4c-1.8-1.9-4.4-2.8-7.8-2.8h-9.5v23.5h-3.6v-50.5c1.7-0.4,3.7-0.6,6-0.8
			c2.2-0.2,4.3-0.3,6.3-0.3c3.6,0,6.5,0.4,8.9,1.1s4.3,1.9,5.8,3.4c1.1,1,2,2.3,2.6,3.9s1,3.3,1,5.1c0,3.4-1,6.2-2.9,8.5
			c-1.9,2.3-4.4,3.9-7.5,4.8v0.2c2.1,0.7,3.8,2,5.1,3.8c1.3,1.8,2.3,4,2.9,6.6c0.9,4.1,1.7,7.2,2.3,9.3c0.6,2.2,1.2,3.8,1.8,4.9
			L1324.3,370.9z M1321.6,326.7c-0.8-1.4-1.8-2.6-3.2-3.5c-1.3-0.9-2.9-1.5-4.7-1.9c-1.8-0.4-3.7-0.6-5.7-0.6
			c-2.1,0-3.8,0.1-5.3,0.3c-1.4,0.2-2.5,0.4-3.2,0.6v21.3h9.7c4.2,0,7.5-1,9.9-3c2.4-2,3.6-4.7,3.6-8
			C1322.8,329.8,1322.4,328.1,1321.6,326.7z"/>
		<path class="st0" d="M1381.4,354.8c-1.4,3.4-3.3,6.2-5.7,8.5c-2.4,2.3-5.1,4-8.1,5.2s-6.2,1.7-9.5,1.7c-3.6,0-6.9-0.6-9.9-1.9
			s-5.7-3.1-7.9-5.4s-4-5-5.3-8.2c-1.3-3.2-1.9-6.6-1.9-10.4c0-4,0.7-7.7,2-11c1.3-3.3,3.1-6.2,5.4-8.6c2.3-2.4,5-4.3,8.1-5.6
			c3.1-1.3,6.4-2,10-2c3.7,0,7,0.7,10.1,2c3.1,1.3,5.7,3.1,7.9,5.4c2.2,2.3,3.9,5,5.1,8.2c1.2,3.1,1.8,6.6,1.8,10.3
			C1383.5,347.5,1382.8,351.4,1381.4,354.8z M1378.3,335.1c-0.9-2.7-2.2-5.2-4-7.4c-1.8-2.2-4-4-6.6-5.4s-5.8-2.1-9.3-2.1
			s-6.7,0.7-9.4,2c-2.7,1.3-4.9,3.1-6.7,5.3c-1.8,2.2-3.2,4.8-4.1,7.7c-0.9,2.9-1.3,5.9-1.3,9.1c0,3,0.5,5.9,1.5,8.7
			c1,2.8,2.4,5.2,4.2,7.3c1.8,2.1,4,3.8,6.7,5.1c2.6,1.3,5.6,1.9,8.9,1.9c3.3,0,6.3-0.6,9-1.8c2.7-1.2,5-2.9,6.8-5
			c1.9-2.1,3.3-4.6,4.3-7.6c1-2.9,1.5-6.1,1.5-9.5C1379.7,340.6,1379.2,337.9,1378.3,335.1z"/>
		<path class="st0" d="M1429.7,358c-1.1,2.9-2.5,5.3-4.3,7.1c-1.8,1.8-3.9,3.2-6.3,4c-2.4,0.8-4.9,1.3-7.6,1.3c-2.4,0-4.8-0.4-7-1.2
			c-2.2-0.8-4.2-2.1-5.9-3.8s-3.1-4.1-4.1-6.9c-1-2.9-1.5-6.4-1.5-10.6v-29.6h3.6v29.6c0,3.5,0.4,6.5,1.2,8.9c0.8,2.5,1.9,4.5,3.2,6
			c1.4,1.5,3,2.7,4.8,3.4c1.8,0.7,3.8,1.1,5.9,1.1c2.3,0,4.5-0.4,6.4-1.1s3.6-1.9,5-3.5s2.5-3.6,3.3-6c0.8-2.4,1.2-5.3,1.2-8.7
			v-29.6h3.6v29.3C1431.3,351.6,1430.8,355.1,1429.7,358z"/>
		<path class="st0" d="M1467.7,342.8c-1.7,1.8-4,3.2-6.7,4.1c-2.7,0.9-5.8,1.4-9.1,1.4c-1.3,0-2.5,0-3.8-0.1
			c-1.2-0.1-2.3-0.3-3.4-0.6v21.8h-3.6v-50.7c1.6-0.3,3.4-0.5,5.4-0.7c2-0.2,4.2-0.3,6.5-0.3c3.4,0,6.3,0.4,8.7,1.2
			c2.4,0.8,4.4,1.9,5.8,3.4c1.3,1.2,2.3,2.6,3,4.3c0.7,1.6,1,3.5,1,5.7C1471.6,336.7,1470.3,340.2,1467.7,342.8z M1466.7,327.2
			c-0.8-1.5-1.9-2.7-3.2-3.7c-1.4-0.9-3-1.6-4.8-2c-1.8-0.4-3.7-0.6-5.8-0.6c-1.9,0-3.5,0.1-5,0.2s-2.5,0.3-3.2,0.5v22.8
			c1,0.4,2.2,0.6,3.5,0.7c1.3,0.1,2.7,0.2,4.1,0.2c5,0,8.9-1.1,11.5-3.3c2.7-2.2,4-5.3,4-9.2
			C1467.9,330.5,1467.5,328.7,1466.7,327.2z"/>
	</g>
</g>
</svg>
