<?xml version="1.0" encoding="utf-8"?>
<!-- Generator: Adobe Illustrator 19.0.0, SVG Export Plug-In . SVG Version: 6.00 Build 0)  -->
<svg version="1.1" xmlns="http://www.w3.org/2000/svg" xmlns:xlink="http://www.w3.org/1999/xlink" x="0px" y="0px"
	 viewBox="0 0 411.8 411.4" style="enable-background:new 0 0 411.8 411.4;" xml:space="preserve">
<style type="text/css">
	.st0{fill:#FFFFFF;}
	.st1{fill:#212121;}
	.st2{fill:#F12A27;}
</style>
<g id="Outer_Ring">
	<circle class="st0" cx="205.8" cy="205.6" r="205.1"/>
</g>
<g id="Planet">
	<g>
		<path class="st1" d="M177.5,217.2c-34.8,4-39.8,39.2-31.9,54.6C162.7,258,171.8,240.6,177.5,217.2z"/>
		<path class="st1" d="M277.3,24.5c-22.3-9-46.7-13.9-72.2-13.9c-99.8,0-181.9,75.5-192.4,172.5c5.3,1.7,21.3,13.2,28.4,32.9
			c10.1,7.1,16.9,18.1,20.8,30.3c4.6,0.6,10.5,3.4,15.9,8.1c4.4-1.1,9-1.2,13.5-0.7c-6.2-14.8-9.7-31-9.7-48.1
			c0-65.1,50.2-118.5,114-123.6c0.8-5.7,1.6-11.6,2.6-17.6c-3.5,0.1-7.4,0.3-12.5,0.5c0,0,0,0,0,0c-0.2,0-0.4-0.1-0.5-0.3
			c-0.1-0.2,0-0.4,0.1-0.6c10.3-8.8,15-21.5,19.2-39.2c0.1-0.2,0.3-0.4,0.5-0.4c0,0,0,0,0,0c0.2,0,0.4,0.2,0.5,0.4
			c4.3,17.2,9,30.5,18.2,39.1c0.2,0.1,0.2,0.4,0.1,0.6s-0.3,0.3-0.5,0.3c-4.7-0.3-8.3-0.4-11.6-0.5c0.9,6,1.7,11.8,2.5,17.5
			c44,3,81.6,29,101.1,66c0-0.1-0.1-0.2-0.1-0.2c7-3.4,103.4-85.8-7.1-45.3c57.8-23.8,82.4-17.4,10.9,53c0,0,0,0,0,0
			c6.8,15.4,10.6,32.4,10.6,50.3c0,11.3-1.5,22.3-4.4,32.7c0.6,0,1.2,0.1,1.9,0.2c3.6-3.5,20.8-8.8,36.4-1.9
			c15.5-25.6,30.4-34,36.7-38.5C397.6,119,347.4,51.9,277.3,24.5z"/>
		<path class="st1" d="M239,222c25.4-18.5,58.2-53.3,58.2-53.3s-32.8,29.2-63.3,48.2C234.3,219.4,235.7,221.2,239,222z"/>
	</g>
</g>
<g id="Smoke">
	<g>
		<path class="st2" d="M121.2,292.5c8.4,2.7,15.5,9.3,18,16.7c9.3,0.7,18.3,5.9,23.1,13.1c7.2-7.7,15.5-11.1,23.6-11.5
			C177.1,297.7,150.1,280.1,121.2,292.5C121.3,292.6,121.3,292.5,121.2,292.5z"/>
		<path class="st2" d="M400.7,202.8c0,0.1,0,0.2,0,0.3C400.7,202.9,400.7,202.9,400.7,202.8z"/>
		<path class="st2" d="M368.4,239.1c6.1,3.8,11.6,9.8,15.7,18.9c-12.7-17.3-26.1-21-36.3-20.7l-2.3,0.1c-6.2,0.6-10.9,2.4-13.3,3.2
			c3,1.9,5.7,5.1,8.2,9.9c-17.3-20-40.8,1.9-33.9,17.6c-3.4,0.9-13.5,3.6-26.9,17.7c5.7,2.9,11.8,7.2,17.9,13.6
			c-23.5-15.6-36.7-13.4-40.5-13.6c2.9,4.5,4.4,10.7,3.3,18.8c-3.5-35.3-34-24.8-40.9-16.3c1.6-2.2,3.4-4.7,5.9-6.9c0,0,0,0,0,0
			c-10.5-4.2-40.5-21.1-77.9,1.5c15.4,1.1,32.5,8.3,44.3,28.3c5.6,0.7,11,2.8,15.7,6c0,0,0,0,0,0c22.5-10.9,38.3,7.3,39.4,13.1
			c12.9,0.9,24,12.1,21.4,34.4c-0.3-25.8-21-42.5-44.2-24.7c5.5-5.9,12.5-9.2,19.3-9.7c-10.3-16.2-28.9-12.5-32.8-10.8c0,0,0,0,0,0
			c14.4,11.7,21.2,33.5,6.2,53c23-35.5-28.4-86.2-63.4-36.5c2.2-4.4,4.7-8.2,7.4-11.3c-0.1,0-0.1,0.1-0.1,0.1
			c-22.4-25.4-45-4.7-49.1,6c4.8-14.8,14.7-20.9,24.7-21.3c-18.8-26.6-41.1-9.3-48.5,0.3c6.7-13.2,16.2-18.2,25.4-18.2
			c3.3-3.1,11.2-6.6,21.2-8c-17.7-24.4-45.5-25.7-52.2-24.8c8.6,9.8,14.4,24.9,8.2,43.2c2-24.8-8.6-45-26.7-50.4
			c2.6,10.5,3,21.5,1.5,31.4c-4.6-42-17-52.8-20.9-56.2c0.8,4.9,1.1,10.2,0.5,15.9c-2.8-31-24-52-32.6-53.6
			c-4.6,37.9,7,101.9,51,148.1c31.3,33.5,76.1,59.3,134.9,62.4c146.8,2.4,199-118,201.4-172.4c0.3-3.9,0.6-7,0.7-9.7
			c0.3-4.9,0.5-8.1,0.6-10.2C395.5,209,375.5,226.8,368.4,239.1z M144,368.3c0-9.5,6.1-14.8,13.1-16c-9.7-10.3-22.4-1.8-26.3,5.6
			c6.9-18,24.6-13.9,30.2-5.8c7.9,0.4,15.6,6.1,15.6,17.3C173.1,350.7,147.8,350.3,144,368.3z"/>
		<path class="st2" d="M229.7,278.4C229.7,278.4,229.7,278.4,229.7,278.4c2.5-1.1,5.6-1.9,9.5-1.8c4.5,0,9,1.3,12.8,3.9
			c3.2-0.3,9.5-0.6,17.3,1.4c-51.7-33.2-45.1-93.1-63.5-217.6c-0.5,0-0.9,0-1.4,0C187,177.6,194,235.8,154.2,272.4
			C177.4,262.3,210,262.7,229.7,278.4z"/>
	</g>
</g>
</svg>
