<?xml version="1.0" encoding="utf-8"?>
<!-- Generator: Adobe Illustrator 19.0.0, SVG Export Plug-In . SVG Version: 6.00 Build 0)  -->
<svg version="1.1" id="Layer_1" xmlns="http://www.w3.org/2000/svg" xmlns:xlink="http://www.w3.org/1999/xlink" x="0px" y="0px"
	 viewBox="0 0 96.4 103.5" style="enable-background:new 0 0 96.4 103.5;" xml:space="preserve">
<style type="text/css">
	.st0{fill:#5C5D6E;}
	.st1{fill:#EF5253;}
	.st2{fill:#717586;}
	.st3{fill:#C74246;}
	.st4{fill:#E3E8F5;}
	.st5{fill:#FFFFFF;}
	.st6{fill:#F3DBB3;}
	.st7{fill:#464755;}
</style>
<g id="XMLID_266_">
	<path id="XMLID_299_" class="st0" d="M82.1,0H14.3c-2,0-3.6,1.6-3.6,3.6v42.8c0,2,1.6,3.6,3.6,3.6h19.6v8.9h28.6V50h19.6
		c2,0,3.6-1.6,3.6-3.6V3.6C85.7,1.6,84.1,0,82.1,0z"/>
	<rect id="XMLID_298_" x="14.3" y="3.6" class="st1" width="67.8" height="42.8"/>
	<polygon id="XMLID_297_" class="st2" points="91,62.5 91,78.5 5.4,78.5 5.4,62.5 1.8,62.5 1.8,101.7 5.4,101.7 5.4,82.1 91,82.1 
		91,101.7 94.6,101.7 94.6,62.5 	"/>
	<g id="XMLID_294_">
		<rect id="XMLID_296_" x="1.8" y="62.5" class="st0" width="3.6" height="5.4"/>
		<rect id="XMLID_295_" x="91" y="62.5" class="st0" width="3.6" height="5.4"/>
	</g>
	<path id="XMLID_293_" class="st3" d="M75,37.5h-41V41h41c1,0,1.8-0.8,1.8-1.8S75.9,37.5,75,37.5z"/>
	<path id="XMLID_292_" class="st4" d="M21.4,37.5c-1,0-1.8,0.8-1.8,1.8c0,1,0.8,1.8,1.8,1.8h8.9v-3.6L21.4,37.5L21.4,37.5z"/>
	<g id="XMLID_287_">
		<circle id="XMLID_291_" class="st5" cx="32.1" cy="39.3" r="3.6"/>
		<path id="XMLID_288_" class="st5" d="M58.9,8.9H37.5c-2,0-3.6,1.6-3.6,3.6v14.3c0,2,1.6,3.6,3.6,3.6h21.4c2,0,3.6-1.6,3.6-3.6
			V12.5C62.5,10.5,60.9,8.9,58.9,8.9z M52.3,20.4L46,24.2c-0.6,0.4-1.4-0.1-1.4-0.8v-7.6c0-0.7,0.8-1.1,1.4-0.8l6.3,3.8
			C52.8,19.2,52.8,20.1,52.3,20.4z"/>
	</g>
	<path id="XMLID_286_" class="st6" d="M94.6,64.3H1.8c-1,0-1.8-0.8-1.8-1.8v-3.6c0-1,0.8-1.8,1.8-1.8h92.8c1,0,1.8,0.8,1.8,1.8v3.6
		C96.4,63.5,95.6,64.3,94.6,64.3z"/>
	<g id="XMLID_283_">
		<path id="XMLID_285_" class="st0" d="M5.4,103.5H1.8c-1,0-1.8-0.8-1.8-1.8c0-1,0.8-1.8,1.8-1.8h3.6c1,0,1.8,0.8,1.8,1.8
			C7.1,102.7,6.3,103.5,5.4,103.5z"/>
		<path id="XMLID_284_" class="st0" d="M94.6,103.5H91c-1,0-1.8-0.8-1.8-1.8c0-1,0.8-1.8,1.8-1.8h3.6c1,0,1.8,0.8,1.8,1.8
			C96.4,102.7,95.6,103.5,94.6,103.5z"/>
	</g>
	<rect id="XMLID_282_" x="33.9" y="50" class="st7" width="28.6" height="3.6"/>
	<g id="XMLID_281_">
	</g>
	<g id="XMLID_280_">
	</g>
	<g id="XMLID_279_">
	</g>
	<g id="XMLID_278_">
	</g>
	<g id="XMLID_277_">
	</g>
	<g id="XMLID_276_">
	</g>
	<g id="XMLID_275_">
	</g>
	<g id="XMLID_274_">
	</g>
	<g id="XMLID_273_">
	</g>
	<g id="XMLID_272_">
	</g>
	<g id="XMLID_271_">
	</g>
	<g id="XMLID_270_">
	</g>
	<g id="XMLID_269_">
	</g>
	<g id="XMLID_268_">
	</g>
	<g id="XMLID_267_">
	</g>
</g>
</svg>
