<?xml version="1.0" encoding="utf-8"?>
<!-- Generator: Adobe Illustrator 19.0.0, SVG Export Plug-In . SVG Version: 6.00 Build 0)  -->
<svg version="1.1" id="Layer_1" xmlns="http://www.w3.org/2000/svg" xmlns:xlink="http://www.w3.org/1999/xlink" x="0px" y="0px"
	 viewBox="0 0 433.8 223.5" style="enable-background:new 0 0 433.8 223.5;" xml:space="preserve">
<style type="text/css">
	.st0{fill:#C5C7C9;}
</style>
<g id="XMLID_75_">
	<path id="XMLID_110_" class="st0" d="M94.5,143.4c0,0-14.3,10.6,5.5,25.1c19.7,14.5-4.9,28.6,11.5,48c16.4,19.4-4.4-5.3,25.8-30.4
		c30.2-25.1,11-31.3-6-37.4C114.3,142.5,107.7,131.1,94.5,143.4z"/>
	<path id="XMLID_109_" class="st0" d="M68.2,118.3c0,0,2.2-5.7,13.7-1.3c11.5,4.4,13.7-18.9,34.5-25.1c20.8-6.2,21.4-13.7,8.2-19.4
		c-13.2-5.7-9.3-10.1-21.9,4c-12.6,14.1-21.1-12.7-1.6-17.6c8.8-2.2,11-12.3,0-15.4c-11-3.1-34,0.9-45.5-9.7
		C44.1,23.1,25.4,12.6,9,35c-16.4,22.5-6.6,22,0,24.2c6.6,2.2,14.3-3.5,21.9,7.9c7.7,11.5-2.2,33,7.7,41c9.9,7.9-0.7,23.9,37.8,27.8
		c4.4,0.4,8.8,1.3,11,3.1c2.2,1.8,10.4-8.4-7.1-11.5C62.7,124.5,66,120.9,68.2,118.3z"/>
	<g id="XMLID_106_">
		<path id="XMLID_108_" class="st0" d="M129.5,34.7c5.2,2.8,15.4,1.3,10.4,10.6c-4.9,9.3-6.6,24.2,3.3,29.5
			c9.9,5.3,8.8-16.3,26.9-16.3c18.1,0,30.2-51.5-8.2-42.7C123.5,24.6,124.6,32.1,129.5,34.7z"/>
		<path id="XMLID_107_" class="st0" d="M425.7,22.3c6-9.7-15.9-7.5-28.5-1.3c-12.6,6.2-27.4,5.3-35.6,1.3c-8.2-4-4.4,6.2-17,7.5
			c-12.6,1.3-26.9,2.2-24.1-6.2c2.7-8.4-11.5-4.4-11.5-4.4c-12.1,3.1-20.8,14.1-18.1,23.8c2.7,9.7-15.9,15.4-32.9,9.7
			c-17-5.7-37.3,0.9-43.3,18.1c-6,17.2-10.4,20.7-18.1,26.9c-7.7,6.2,9.9,14.1,21.4-0.4c11.5-14.5,19.2-3.1,26.3,3.1
			c3,2.6,7.1,8.8,7.1,8.8s1.2,2.2,3.3,5.2c-2.1-0.6-4.4-0.9-6.8-0.9h-2.7c-3.9-3.5-9.6-5.7-15.9-5.7h-24.1
			c-11.8,0-21.4,7.7-21.4,17.2c0,9.5,9.6,17.2,21.4,17.2h18c0.2,0.2,0.4,0.4,0.6,0.6c-1.1,2.9-2.9,10.2,4.8,14.3
			c9.6,5.2-5.4,8.2,3.8,21.1c9.1,12.9,18.2,9.9,23.6,3c5.4-6.9,3.2-8.6,10.2-12.9c7-4.3,8-11.6,1.1-17.7c-3-2.6-3-5.7-2-8.4
			c1.7-1.7,3-3.7,3.8-5.9c0.2-0.2,0.3-0.3,0.3-0.3l-0.2,0c0.5-1.5,0.8-3.1,0.8-4.8c0-0.5,0-1-0.1-1.4c2.8,1.8,5.9,3,9,3.3
			c13.9,1.2,9.9-9.5,19.3-9.4c5.4,2,8.4,5.3,10.3,12.1c3.8,13.2,6,2.2,17-6.6c11-8.8,14.3-1.5,29.6,9.7c15.4,11.1,9.3-4.4,7.7-12.3
			c-1.6-7.9,19.7-0.1,13.7-18c-6-18,12.1-3.5,15.9-17.6c3.8-14.1-12.6-16.3-7.7-27.3c4.9-11,18.7-17.3,21.4-1.8
			c2.9,17.1,24,14.9,19.1-1.8c-4.9-16.7-1.4-16.7,6.9-21.1C440.1,34.2,419.6,31.9,425.7,22.3z"/>
	</g>
	<path id="XMLID_105_" class="st0" d="M369.7,179.5c-11.9,2.3-7.7,18.5,6.6,17.2c14.3-1.3,23.6-0.5,29.6,10.1
		c6,10.6,26.9-12.3,15.9-23.8c-11-11.5-8.8-12.3-14.3-19.8C402.1,155.7,381.3,177.3,369.7,179.5z"/>
	<path id="XMLID_104_" class="st0" d="M395.3,138.6h-1.1c-4.6,0-8.3-3-8.3-6.7c0-3.7,3.7-6.7,8.3-6.7h1.1c4.6,0,8.3,3,8.3,6.7
		C403.6,135.6,399.9,138.6,395.3,138.6z"/>
	<path id="XMLID_103_" class="st0" d="M350.1,167.9c-2.2,0-4.3-0.7-5.9-2c-1.5-1.2-2.4-3-2.4-4.7c0-1.8,0.9-3.5,2.4-4.7
		c1.6-1.2,3.7-1.9,5.9-1.9c2.2,0,4.3,0.7,5.9,1.9c1.6,1.2,2.4,3,2.4,4.7c0,1.7-0.9,3.5-2.4,4.7C354.4,167.2,352.3,167.9,350.1,167.9
		z"/>
	<path id="XMLID_102_" class="st0" d="M94.6,25.1c-2.2,0-4.3-0.7-5.9-2c-1.6-1.2-2.4-2.9-2.4-4.7c0-1.8,0.9-3.5,2.4-4.7
		c1.5-1.2,3.7-2,5.9-2c2.2,0,4.3,0.7,5.9,2c1.6,1.2,2.4,3,2.4,4.7c0,1.7-0.9,3.5-2.4,4.7C98.9,24.4,96.7,25.1,94.6,25.1z"/>
	<path id="XMLID_101_" class="st0" d="M116.3,14.1c-2.2,0-4.3-0.7-5.9-2c-1.6-1.2-2.4-3-2.4-4.7s0.9-3.5,2.4-4.7
		c1.5-1.2,3.7-2,5.9-2s4.3,0.7,5.9,2c1.6,1.2,2.4,3,2.4,4.7s-0.9,3.5-2.4,4.7C120.6,13.4,118.5,14.1,116.3,14.1z"/>
	<path id="XMLID_100_" class="st0" d="M275.2,198.1c-2.2,0-4.3-0.7-5.9-2c-1.6-1.2-2.4-3-2.4-4.7c0-1.8,0.9-3.5,2.4-4.7
		c1.5-1.2,3.7-2,5.9-2c2.2,0,4.3,0.7,5.9,2c1.6,1.2,2.4,3,2.4,4.7c0,1.7-0.9,3.5-2.4,4.7C279.6,197.4,277.4,198.1,275.2,198.1z"/>
	<path id="XMLID_99_" class="st0" d="M74,15.9c-2.2,0-4.3-0.7-5.9-2c-1.6-1.2-2.4-3-2.4-4.7c0-1.8,0.9-3.5,2.4-4.7
		c1.6-1.2,3.7-1.9,5.9-1.9c2.2,0,4.3,0.7,5.9,1.9c1.5,1.2,2.4,3,2.4,4.7c0,1.7-0.9,3.5-2.4,4.7C78.3,15.2,76.2,15.9,74,15.9z"/>
	<path id="XMLID_98_" class="st0" d="M377,159.7c-2.2,0-4.3-0.7-5.9-1.9c-1.6-1.2-2.4-3-2.4-4.7c0-1.8,0.9-3.5,2.4-4.7
		c1.5-1.2,3.7-2,5.9-2c2.2,0,4.3,0.7,5.9,2c1.6,1.2,2.4,3,2.4,4.7c0,1.8-0.9,3.5-2.4,4.7C381.3,159,379.2,159.7,377,159.7z"/>
	<path id="XMLID_97_" class="st0" d="M401,121.2c-3.1,0-6.1-1.4-7.5-3.8c-2-3.3-0.3-7.3,3.9-8.9c6.3-2.4,10.2-7.4,10.2-13
		c0-3.7,3.7-6.7,8.3-6.7c4.6,0,8.3,3,8.3,6.7c0,10.6-7.7,20.4-19.6,25C403.4,121,402.2,121.2,401,121.2z"/>
	<g id="XMLID_96_">
	</g>
	<g id="XMLID_95_">
	</g>
	<g id="XMLID_94_">
	</g>
	<g id="XMLID_93_">
	</g>
	<g id="XMLID_92_">
	</g>
	<g id="XMLID_91_">
	</g>
	<g id="XMLID_90_">
	</g>
	<g id="XMLID_89_">
	</g>
	<g id="XMLID_88_">
	</g>
	<g id="XMLID_87_">
	</g>
	<g id="XMLID_86_">
	</g>
	<g id="XMLID_85_">
	</g>
	<g id="XMLID_84_">
	</g>
	<g id="XMLID_81_">
	</g>
	<g id="XMLID_78_">
	</g>
</g>
</svg>
