<?xml version="1.0" encoding="utf-8"?>
<!-- Generator: Adobe Illustrator 19.0.0, SVG Export Plug-In . SVG Version: 6.00 Build 0)  -->
<svg version="1.1" id="Layer_1" xmlns="http://www.w3.org/2000/svg" xmlns:xlink="http://www.w3.org/1999/xlink" x="0px" y="0px"
	 viewBox="-269 191 78.5 100" style="enable-background:new -269 191 78.5 100;" xml:space="preserve">
<style type="text/css">
	.st0{fill:#FFFFFF;}
</style>
<g id="XMLID_6_">
	<g id="XMLID_28_">
		<g id="XMLID_29_">
			<path id="XMLID_31_" class="st0" d="M-197.4,212.5h-8.8l-21.2-18c0.1-0.3,0.2-0.6,0.2-1c0-1.4-1.1-2.5-2.5-2.5s-2.5,1.1-2.5,2.5
				c0,0.3,0.1,0.7,0.2,1l-21.2,18h-8.8c-3.8,0-6.8,3.1-6.8,6.8v64.8c0,3.8,3.1,6.8,6.8,6.8h57l14.6-14.6v-57
				C-190.5,215.6-193.6,212.5-197.4,212.5z M-231.1,195.7c0.4,0.2,0.8,0.4,1.3,0.4s0.9-0.2,1.3-0.4l19.8,16.9h-42.2L-231.1,195.7z
				 M-232.4,264.5c-0.6,1.3-1.4,2.4-2.4,3.3c-1,0.9-2.2,1.5-3.5,1.9c-1.4,0.4-2.8,0.6-4.3,0.6c-1.8,0-3.4-0.2-4.8-0.5
				c-1.4-0.3-2.6-0.9-3.7-1.7c-1-0.8-1.8-1.9-2.4-3.4c-0.6-1.4-0.8-3.3-0.8-5.5h8.1c0,0.8,0,1.5,0.1,2.2c0.1,0.7,0.2,1.3,0.5,1.8
				c0.2,0.5,0.5,0.9,0.9,1.2c0.4,0.3,0.9,0.5,1.5,0.5c1.1,0,1.9-0.4,2.4-1.1c0.5-0.7,0.8-2.1,0.8-4.1c0-1.1-0.1-2.1-0.2-2.8
				c-0.1-0.7-0.4-1.3-0.7-1.7c-0.3-0.4-0.8-0.7-1.3-0.9c-0.5-0.2-1.2-0.2-2.1-0.2h-2v-5.3h2.3c1.4,0,2.3-0.5,2.8-1.3
				c0.5-0.9,0.8-2.2,0.8-3.9c0-1.4-0.2-2.4-0.7-3.1c-0.5-0.6-1.2-1-2.1-1c-0.9,0-1.7,0.3-2.3,1c-0.6,0.7-0.9,2-0.9,4h-7.5
				c0-3.5,0.9-6.1,2.7-7.8c1.8-1.7,4.7-2.6,8.6-2.6c3.5,0,6.1,0.8,7.7,2.3c1.7,1.5,2.5,4,2.5,7.4c0,1.8-0.4,3.3-1.3,4.6
				c-0.9,1.3-2.1,2.1-3.7,2.5v0.1c2.1,0.5,3.6,1.4,4.5,2.7c0.9,1.3,1.3,3.3,1.3,5.8C-231.5,261.5-231.8,263.1-232.4,264.5z
				 M-205.7,259.3c-0.2,2.2-0.7,4.1-1.5,5.7c-0.8,1.6-2,2.9-3.5,3.8c-1.5,0.9-3.6,1.4-6.2,1.4c-2.7,0-4.8-0.4-6.3-1.2
				c-1.5-0.8-2.7-2-3.5-3.5s-1.3-3.4-1.5-5.6c-0.2-2.2-0.3-4.8-0.3-7.6c0-2.5,0.1-4.9,0.3-7.1c0.2-2.2,0.7-4.1,1.5-5.7
				c0.8-1.6,2-2.9,3.5-3.8c1.5-0.9,3.6-1.4,6.2-1.4c2.6,0,4.7,0.4,6.3,1.2c1.5,0.8,2.7,2,3.5,3.5c0.8,1.5,1.3,3.4,1.5,5.7
				c0.2,2.2,0.3,4.8,0.3,7.6C-205.3,254.8-205.4,257.1-205.7,259.3z"/>
			<path id="XMLID_30_" class="st0" d="M-214.3,242.1c-0.2-1-0.6-1.6-1-2c-0.4-0.4-1-0.6-1.7-0.6c-0.7,0-1.3,0.2-1.7,0.6
				c-0.4,0.4-0.8,1.1-1,2c-0.2,1-0.4,2.3-0.5,3.9c-0.1,1.6-0.1,3.7-0.1,6.3c0,2.5,0,4.6,0.1,6.2c0.1,1.6,0.2,2.9,0.5,3.9
				c0.2,1,0.6,1.6,1,2c0.4,0.4,1,0.6,1.7,0.6c0.7,0,1.3-0.2,1.7-0.6c0.4-0.4,0.8-1.1,1-2c0.2-1,0.4-2.3,0.5-3.9
				c0.1-1.6,0.1-3.7,0.1-6.2c0-2.5,0-4.6-0.1-6.3C-213.9,244.4-214,243.1-214.3,242.1z"/>
		</g>
	</g>
	<g id="XMLID_27_">
	</g>
	<g id="XMLID_26_">
	</g>
	<g id="XMLID_25_">
	</g>
	<g id="XMLID_24_">
	</g>
	<g id="XMLID_23_">
	</g>
	<g id="XMLID_22_">
	</g>
	<g id="XMLID_21_">
	</g>
	<g id="XMLID_18_">
	</g>
	<g id="XMLID_16_">
	</g>
	<g id="XMLID_15_">
	</g>
	<g id="XMLID_14_">
	</g>
	<g id="XMLID_13_">
	</g>
	<g id="XMLID_12_">
	</g>
	<g id="XMLID_11_">
	</g>
	<g id="XMLID_10_">
	</g>
</g>
</svg>
