<?xml version="1.0" encoding="utf-8"?>
<!-- Generator: Adobe Illustrator 19.0.0, SVG Export Plug-In . SVG Version: 6.00 Build 0)  -->
<svg version="1.1" id="Layer_1" xmlns="http://www.w3.org/2000/svg" xmlns:xlink="http://www.w3.org/1999/xlink" x="0px" y="0px"
	 viewBox="0 0 74.6 93.9" style="enable-background:new 0 0 74.6 93.9;" xml:space="preserve">
<style type="text/css">
	.st0{fill:#FFFFFF;}
</style>
<g id="XMLID_196_">
	<g id="XMLID_212_">
		<g id="_x38_7_1_">
			<g id="XMLID_213_">
				<path id="XMLID_223_" class="st0" d="M12.9,41.7c-2.5,0-2.5,3.9,0,3.9c9.9,0,19.8,0,29.7,0c2.5,0,2.5-3.9,0-3.9
					C32.6,41.7,22.7,41.7,12.9,41.7z"/>
				<path id="XMLID_222_" class="st0" d="M42.5,50.8c-9.9,0-19.8,0-29.7,0c-2.5,0-2.5,3.9,0,3.9c9.9,0,19.8,0,29.7,0
					C45,54.7,45,50.8,42.5,50.8z"/>
				<path id="XMLID_221_" class="st0" d="M42.5,59.3c-9.9,0-19.8,0-29.7,0c-2.5,0-2.5,3.9,0,3.9c9.9,0,19.8,0,29.7,0
					C45,63.1,45,59.3,42.5,59.3z"/>
				<path id="XMLID_220_" class="st0" d="M42.5,68.4c-9.9,0-19.8,0-29.7,0c-2.5,0-2.5,3.9,0,3.9c9.9,0,19.8,0,29.7,0
					C45,72.2,45,68.4,42.5,68.4z"/>
				<path id="XMLID_219_" class="st0" d="M42,77c-9.9,0-19.8,0-29.7,0c-2.5,0-2.5,3.9,0,3.9c9.9,0,19.8,0,29.7,0
					C44.4,80.8,44.4,77,42,77z"/>
				<path id="XMLID_216_" class="st0" d="M0,22v71.9h55.4V32L45.1,22L0,22z M50.6,89.1H4.8V26.8h37.8v7.6h8L50.6,89.1L50.6,89.1z"/>
				<polygon id="XMLID_215_" class="st0" points="9.4,11 9.4,19.3 14.2,19.3 14.2,15.7 52,15.7 52,23.3 60,23.3 60,78.1 57.9,78.1 
					57.9,82.9 64.8,82.9 64.8,20.9 54.5,11 				"/>
				<polygon id="XMLID_214_" class="st0" points="64.3,0.9 19.2,0.9 19.2,9.3 24,9.3 24,5.7 61.8,5.7 61.8,13.3 69.8,13.3 
					69.8,68.1 67.7,68.1 67.7,72.9 74.6,72.9 74.6,10.9 				"/>
			</g>
		</g>
	</g>
	<g id="XMLID_211_">
	</g>
	<g id="XMLID_210_">
	</g>
	<g id="XMLID_209_">
	</g>
	<g id="XMLID_208_">
	</g>
	<g id="XMLID_207_">
	</g>
	<g id="XMLID_206_">
	</g>
	<g id="XMLID_205_">
	</g>
	<g id="XMLID_204_">
	</g>
	<g id="XMLID_203_">
	</g>
	<g id="XMLID_202_">
	</g>
	<g id="XMLID_201_">
	</g>
	<g id="XMLID_200_">
	</g>
	<g id="XMLID_199_">
	</g>
	<g id="XMLID_198_">
	</g>
	<g id="XMLID_197_">
	</g>
</g>
</svg>
