<?xml version="1.0" encoding="utf-8"?>
<!-- Generator: Adobe Illustrator 19.0.0, SVG Export Plug-In . SVG Version: 6.00 Build 0)  -->
<svg version="1.1" id="Layer_1" xmlns="http://www.w3.org/2000/svg" xmlns:xlink="http://www.w3.org/1999/xlink" x="0px" y="0px"
	 viewBox="-225 99.7 188.2 282.3" style="enable-background:new -225 99.7 188.2 282.3;" xml:space="preserve">
<style type="text/css">
	.st0{enable-background:new    ;}
	.st1{fill:#EC202A;}
	.st2{fill:#231F20;}
</style>
<g class="st0">
	<path class="st1" d="M-218.6,113.7v6.9h-1.3v-17.1h5c1.5,0,2.7,0.5,3.6,1.4s1.3,2.2,1.3,3.7c0,1.6-0.4,2.9-1.3,3.7s-2,1.3-3.6,1.3
		H-218.6z M-218.6,112.4h3.6c1.1,0,2-0.3,2.6-1s0.9-1.6,0.9-2.8s-0.3-2.1-0.9-2.8s-1.5-1-2.6-1h-3.6V112.4z"/>
	<path class="st1" d="M-201.7,113.5h-4v7.1h-1.3v-17.1h4.7c1.6,0,2.8,0.4,3.6,1.3s1.3,2.1,1.3,3.7c0,1.1-0.3,2.1-0.8,2.9
		s-1.2,1.4-2.1,1.7l3.6,7.3v0.2h-1.4L-201.7,113.5z M-205.7,112.2h3.6c1,0,1.8-0.3,2.4-1s0.9-1.6,0.9-2.7c0-1.2-0.3-2.1-0.9-2.8
		s-1.5-1-2.6-1h-3.3V112.2z"/>
	<path class="st1" d="M-186.1,115.8h-6.4l-1.5,4.8h-1.4l5.4-17.1h1.2l5.4,17.1h-1.4L-186.1,115.8z M-192.1,114.6h5.6l-2.8-9.2
		L-192.1,114.6z"/>
	<path class="st1" d="M-176.3,110.7l3.9-7.2h1.6l-4.7,8.4l4.8,8.6h-1.6l-4.1-7.4l-4.1,7.4h-1.6l4.9-8.6l-4.7-8.4h1.6L-176.3,110.7z"
		/>
	<path class="st1" d="M-157.9,103.5v12.1c0,1.6-0.5,2.9-1.3,3.8s-2.1,1.4-3.7,1.4c-1.6,0-2.9-0.4-3.8-1.3s-1.3-2.2-1.3-3.9v-12.1
		h1.3v12c0,2.7,1.2,4,3.7,4c2.5,0,3.7-1.3,3.7-3.9v-12.1H-157.9z"/>
	<path class="st1" d="M-146.1,116.4c0-1-0.3-1.7-0.8-2.3s-1.6-1.1-3-1.6s-2.6-1.1-3.3-1.7c-0.9-0.8-1.4-1.9-1.4-3.2
		c0-1.3,0.4-2.4,1.3-3.2s2.1-1.2,3.5-1.2c1.5,0,2.6,0.5,3.6,1.4s1.4,2.2,1.4,3.7h-1.3c0-1.1-0.3-2.1-1-2.8s-1.5-1.1-2.6-1.1
		c-1.1,0-1.9,0.3-2.5,0.9s-0.9,1.3-0.9,2.3c0,0.9,0.3,1.6,0.9,2.1s1.5,1,2.8,1.5s2.3,0.9,2.9,1.3s1.1,1,1.5,1.6s0.5,1.3,0.5,2.2
		c0,1.3-0.5,2.4-1.4,3.2s-2.1,1.2-3.6,1.2c-1,0-1.9-0.2-2.7-0.6s-1.5-1-1.9-1.8s-0.7-1.7-0.7-2.7h1.3c0,1.2,0.4,2.1,1.1,2.8
		s1.7,1,2.9,1c1.1,0,1.9-0.3,2.6-0.9S-146.1,117.4-146.1,116.4z"/>
	<path class="st1" d="M-134.6,103.5l5.2,15l5.2-15h1.8v17.1h-1.3v-7.4l0.1-7.4l-5.2,14.8h-1l-5.2-14.8l0.1,7.3v7.4h-1.3v-17.1
		H-134.6z"/>
	<path class="st1" d="M-110.4,112.4h-6.6v6.9h7.6v1.2h-9v-17.1h8.9v1.3h-7.6v6.4h6.6V112.4z"/>
	<path class="st1" d="M-104.7,103.5l5.2,15l5.2-15h1.8v17.1h-1.3v-7.4l0.1-7.4l-5.2,14.8h-1l-5.2-14.8l0.1,7.3v7.4h-1.3v-17.1
		H-104.7z"/>
	<path class="st1" d="M-88.5,120.6v-17.1h4.3c1.5,0,2.7,0.4,3.5,1.1c0.8,0.8,1.2,1.9,1.2,3.3c0,0.9-0.2,1.6-0.6,2.3
		c-0.4,0.6-1,1.1-1.7,1.4c0.8,0.2,1.5,0.7,2,1.4c0.5,0.8,0.8,1.6,0.8,2.7c0,1.5-0.4,2.7-1.2,3.5c-0.8,0.9-2,1.3-3.5,1.3H-88.5z
		 M-87.2,111.2h3.1c1,0,1.8-0.3,2.4-0.8s0.8-1.3,0.8-2.4c0-1.1-0.3-1.9-0.8-2.4s-1.4-0.8-2.5-0.8h-3V111.2z M-87.2,112.4v7h3.5
		c1,0,1.8-0.3,2.4-0.9c0.6-0.6,0.9-1.5,0.9-2.6c0-1-0.3-1.9-0.8-2.5s-1.3-0.9-2.3-1H-87.2z"/>
	<path class="st1" d="M-67.7,112.4h-6.6v6.9h7.6v1.2h-9v-17.1h8.9v1.3h-7.6v6.4h6.6V112.4z"/>
	<path class="st1" d="M-58.4,113.5h-4v7.1h-1.3v-17.1h4.7c1.6,0,2.8,0.4,3.6,1.3s1.3,2.1,1.3,3.7c0,1.1-0.3,2.1-0.8,2.9
		s-1.2,1.4-2.1,1.7l3.6,7.3v0.2H-55L-58.4,113.5z M-62.4,112.2h3.6c1,0,1.8-0.3,2.4-1s0.9-1.6,0.9-2.7c0-1.2-0.3-2.1-0.9-2.8
		s-1.5-1-2.6-1h-3.3V112.2z"/>
	<path class="st1" d="M-42.5,116.4c0-1-0.3-1.7-0.8-2.3s-1.6-1.1-3-1.6s-2.6-1.1-3.3-1.7c-0.9-0.8-1.4-1.9-1.4-3.2
		c0-1.3,0.4-2.4,1.3-3.2s2.1-1.2,3.5-1.2c1.5,0,2.6,0.5,3.6,1.4s1.4,2.2,1.4,3.7h-1.3c0-1.1-0.3-2.1-1-2.8s-1.5-1.1-2.6-1.1
		c-1.1,0-1.9,0.3-2.5,0.9s-0.9,1.3-0.9,2.3c0,0.9,0.3,1.6,0.9,2.1s1.5,1,2.8,1.5s2.3,0.9,2.9,1.3s1.1,1,1.5,1.6s0.5,1.3,0.5,2.2
		c0,1.3-0.5,2.4-1.4,3.2s-2.1,1.2-3.6,1.2c-1,0-1.9-0.2-2.7-0.6s-1.5-1-1.9-1.8s-0.7-1.7-0.7-2.7h1.3c0,1.2,0.4,2.1,1.1,2.8
		s1.7,1,2.9,1c1.1,0,1.9-0.3,2.6-0.9S-42.5,117.4-42.5,116.4z"/>
</g>
<g class="st0">
	<path class="st1" d="M-207.5,169.8v21.8H-220v-61.9h21.1c6.1,0,11,1.9,14.6,5.7s5.5,8.7,5.5,14.8s-1.8,10.8-5.4,14.4
		c-3.6,3.5-8.6,5.3-15,5.3H-207.5z M-207.5,159.4h8.6c2.4,0,4.2-0.8,5.5-2.3c1.3-1.6,2-3.8,2-6.8c0-3.1-0.7-5.5-2-7.4
		c-1.3-1.8-3.1-2.8-5.4-2.8h-8.7V159.4z"/>
	<path class="st1" d="M-158.1,181.2h21.9v10.4h-34.4v-61.9h12.5V181.2z"/>
	<path class="st1" d="M-98.6,178.9h-17l-3.3,12.7h-13.2l19.3-61.9h11.4l19.5,61.9h-13.3L-98.6,178.9z M-112.9,168.5h11.6l-5.8-22
		L-112.9,168.5z"/>
	<path class="st1" d="M-63.9,157.5l9.3-27.8H-41l-16.6,39.4v22.4h-12.7v-22.4l-16.6-39.4h13.6L-63.9,157.5z"/>
</g>
<g class="st0">
	<path class="st2" d="M-203.7,223.2H-215l-2.6,8.3h-2.5l9.6-29.9h2.2l9.6,29.9h-2.5L-203.7,223.2z M-214.4,221.1h9.9l-5-16
		L-214.4,221.1z"/>
	<path class="st2" d="M-191.8,229.4h12.4v2.2h-14.8v-29.9h2.4V229.4z"/>
	<path class="st2" d="M-172.1,229.4h12.4v2.2h-14.8v-29.9h2.4V229.4z"/>
	<path class="st2" d="M-128.9,203.9h-8.6v27.6h-2.4v-27.6h-8.6v-2.2h19.5V203.9z"/>
	<path class="st2" d="M-116.2,218l7.5-16.2h2.7l-9.1,18.6v11.2h-2.4v-11.2l-9.1-18.6h2.8L-116.2,218z"/>
	<path class="st2" d="M-99.2,219.5v12.1h-2.4v-29.9h8.8c2.7,0,4.8,0.8,6.3,2.4c1.5,1.6,2.3,3.8,2.3,6.5c0,2.8-0.7,5-2.2,6.5
		s-3.6,2.3-6.4,2.3H-99.2z M-99.2,217.3h6.4c2,0,3.5-0.6,4.6-1.7s1.6-2.8,1.6-4.9s-0.5-3.7-1.6-4.9s-2.6-1.8-4.6-1.8h-6.4V217.3z"/>
	<path class="st2" d="M-64.6,217.3h-11.7v12.1h13.5v2.2h-15.8v-29.9h15.7v2.2h-13.4v11.2h11.7V217.3z"/>
	<path class="st2" d="M-43.4,224.2c0-1.7-0.5-3-1.4-3.9s-2.8-1.9-5.4-2.7s-4.5-1.9-5.8-2.9c-1.6-1.4-2.4-3.3-2.4-5.6
		c0-2.3,0.8-4.1,2.4-5.6s3.6-2.2,6.2-2.2c2.6,0,4.7,0.8,6.3,2.5c1.6,1.7,2.4,3.8,2.4,6.4h-2.4c0-2-0.6-3.6-1.7-4.9s-2.7-1.9-4.6-1.9
		c-1.9,0-3.4,0.5-4.5,1.5s-1.6,2.3-1.6,3.9c0,1.5,0.5,2.7,1.6,3.7s2.7,1.8,5,2.6s4,1.5,5.1,2.3s2,1.7,2.6,2.8s0.8,2.4,0.8,3.8
		c0,2.3-0.8,4.2-2.4,5.6s-3.7,2.1-6.3,2.1c-1.8,0-3.4-0.4-4.8-1.1s-2.6-1.8-3.4-3.1s-1.2-2.9-1.2-4.8h2.4c0,2.1,0.6,3.8,1.9,5
		c1.3,1.2,3,1.8,5.2,1.8c1.9,0,3.4-0.5,4.6-1.5S-43.4,225.9-43.4,224.2z"/>
</g>
<g class="st0">
	<path class="st2" d="M-207.1,252.4c0,2.4-0.5,4.2-1.6,5.5c-1.1,1.3-2.6,2-4.5,2c-1.9,0-3.4-0.7-4.5-2c-1.1-1.3-1.6-3.1-1.6-5.5v-4
		c0-2.4,0.5-4.2,1.6-5.5c1.1-1.3,2.6-2,4.5-2c1.9,0,3.4,0.7,4.5,2c1.1,1.3,1.6,3.2,1.6,5.6V252.4z M-208.6,248.3
		c0-2-0.4-3.5-1.2-4.6c-0.8-1-1.9-1.5-3.4-1.5c-1.4,0-2.6,0.5-3.4,1.5c-0.8,1-1.2,2.5-1.2,4.5v4.1c0,2,0.4,3.6,1.2,4.6
		s2,1.5,3.4,1.5c1.5,0,2.6-0.5,3.4-1.5s1.2-2.5,1.2-4.6V248.3z"/>
	<path class="st2" d="M-194.4,251h-7.3v8.6h-1.5v-18.5h9.8v1.4h-8.3v7.1h7.3V251z"/>
	<path class="st2" d="M-182.2,241.1l5.7,16.3l5.7-16.3h2v18.5h-1.5v-8l0.1-8.1l-5.8,16.1h-1.1l-5.7-16l0.1,7.9v8.1h-1.5v-18.5
		H-182.2z"/>
	<path class="st2" d="M-153.4,241.1v13.1c0,1.8-0.5,3.2-1.5,4.2c-1,1-2.4,1.5-4.1,1.5c-1.8,0-3.2-0.5-4.2-1.5c-1-1-1.4-2.4-1.4-4.2
		v-13.1h1.5v13c0,2.9,1.4,4.4,4.1,4.4c2.7,0,4.1-1.4,4.1-4.3v-13.1H-153.4z"/>
	<path class="st2" d="M-147.7,258.2h7.8v1.3h-9.3v-18.5h1.5V258.2z"/>
	<path class="st2" d="M-129.7,242.5h-5.4v17.1h-1.5v-17.1h-5.3v-1.4h12.2V242.5z"/>
	<path class="st2" d="M-124.9,259.6h-1.5v-18.5h1.5V259.6z"/>
	<path class="st2" d="M-118.7,252.1v7.5h-1.5v-18.5h5.5c1.7,0,3,0.5,3.9,1.5c1,1,1.4,2.3,1.4,4.1c0,1.8-0.5,3.1-1.4,4
		s-2.3,1.4-4,1.4H-118.7z M-118.7,250.7h4c1.2,0,2.2-0.4,2.9-1.1s1-1.7,1-3s-0.3-2.3-1-3.1c-0.7-0.7-1.6-1.1-2.9-1.1h-4V250.7z"/>
	<path class="st2" d="M-104.4,258.2h7.8v1.3h-9.3v-18.5h1.5V258.2z"/>
	<path class="st2" d="M-84.8,254.4h-7.1l-1.6,5.2H-95l6-18.5h1.4l6,18.5h-1.5L-84.8,254.4z M-91.4,253.1h6.2l-3.1-9.9L-91.4,253.1z"
		/>
	<path class="st2" d="M-75.3,251.2l4.7-10.1h1.7l-5.7,11.5v7h-1.5v-7l-5.7-11.5h1.7L-75.3,251.2z"/>
	<path class="st2" d="M-57.4,250.7h-7.3v7.5h8.4v1.3h-9.9v-18.5h9.8v1.4h-8.4v6.9h7.3V250.7z"/>
	<path class="st2" d="M-47.1,251.9h-4.4v7.7H-53v-18.5h5.2c1.7,0,3,0.5,4,1.4c0.9,1,1.4,2.3,1.4,4c0,1.2-0.3,2.2-0.9,3.1
		c-0.6,0.9-1.4,1.5-2.4,1.9l3.9,7.9v0.2h-1.6L-47.1,251.9z M-51.5,250.6h3.9c1.1,0,2-0.4,2.7-1.1s1-1.7,1-2.9c0-1.3-0.3-2.3-1-3
		c-0.7-0.7-1.7-1.1-2.9-1.1h-3.7V250.6z"/>
</g>
<g class="st0">
	<path class="st2" d="M-190.9,295.9c0,5.5-1.2,9.8-3.7,12.8c-2.5,3-5.9,4.5-10.4,4.5c-4.4,0-7.9-1.5-10.4-4.5
		c-2.5-3-3.8-7.2-3.8-12.7v-9.3c0-5.5,1.2-9.8,3.7-12.8s5.9-4.6,10.3-4.6c4.5,0,7.9,1.5,10.4,4.6s3.7,7.3,3.7,12.9V295.9z
		 M-194.3,286.6c0-4.7-0.9-8.2-2.7-10.5c-1.8-2.3-4.5-3.5-7.9-3.5c-3.3,0-5.9,1.1-7.8,3.4s-2.8,5.7-2.9,10.3v9.6
		c0,4.7,0.9,8.2,2.8,10.6s4.5,3.5,7.9,3.5c3.5,0,6.1-1.2,7.9-3.5c1.8-2.3,2.7-5.9,2.7-10.6V286.6z"/>
	<path class="st2" d="M-154.4,312.6h-3.4l-20.5-36.3v36.3h-3.4v-42.7h3.4l20.6,36.4v-36.4h3.4V312.6z"/>
	<path class="st2" d="M-140.6,309.5h17.9v3.1H-144v-42.7h3.4V309.5z"/>
	<path class="st2" d="M-111.6,312.6h-3.4v-42.7h3.4V312.6z"/>
	<path class="st2" d="M-73.3,312.6h-3.4l-20.5-36.3v36.3h-3.4v-42.7h3.4l20.6,36.4v-36.4h3.4V312.6z"/>
	<path class="st2" d="M-42.7,292.2h-16.9v17.3h19.4v3.1H-63v-42.7h22.7v3.2h-19.3v16h16.9V292.2z"/>
</g>
<g class="st0">
	<path class="st1" d="M-188.6,360.8c-1.7,1.8-3.8,3.1-6.3,4.1c-2.5,0.9-5.2,1.4-8.2,1.4c-5,0-9-1.5-11.8-4.6s-4.2-7.5-4.3-13.3v-7.7
		c0-5.9,1.3-10.4,4-13.6c2.6-3.2,6.5-4.8,11.6-4.8c4.8,0,8.4,1.1,10.8,3.4c2.4,2.3,3.8,5.9,4.2,10.8h-8.6c-0.2-2.7-0.8-4.6-1.8-5.6
		s-2.4-1.5-4.3-1.5c-2.4,0-4.1,0.8-5.2,2.5s-1.6,4.4-1.7,8.1v7.7c0,3.9,0.6,6.7,1.8,8.5c1.2,1.8,3.2,2.7,5.9,2.7
		c1.8,0,3.2-0.3,4.3-1l0.8-0.5v-7.8h-6.2v-6.5h15.1V360.8z"/>
	<path class="st1" d="M-161.3,356.9h-12.1l-2.4,8.7h-9.4l13.7-42.7h8.1l13.8,42.7h-9.5L-161.3,356.9z M-171.5,349.7h8.2l-4.1-15.2
		L-171.5,349.7z"/>
	<path class="st1" d="M-133.8,322.9l8.3,30.8l8.3-30.8h11.6v42.7h-8.9V354l0.8-17.8l-8.8,29.3h-6l-8.8-29.3l0.8,17.8v11.5h-8.9
		v-42.7H-133.8z"/>
	<path class="st1" d="M-75.9,347.1h-13.8v11.3h16.4v7.1h-25.2v-42.7h25.2v7.2h-16.3v10.1h13.8V347.1z"/>
	<path class="st1" d="M-49.7,354.4c0-1.7-0.5-3.1-1.4-3.9c-0.9-0.9-2.6-1.8-5-2.8c-4.4-1.6-7.6-3.5-9.5-5.7
		c-1.9-2.2-2.9-4.8-2.9-7.7c0-3.6,1.3-6.5,3.9-8.7c2.6-2.2,6-3.3,10-3.3c2.7,0,5.1,0.6,7.2,1.7s3.7,2.7,4.9,4.7
		c1.1,2,1.7,4.3,1.7,6.9h-8.8c0-2-0.4-3.5-1.3-4.6c-0.9-1-2.1-1.6-3.8-1.6c-1.5,0-2.8,0.4-3.6,1.3c-0.9,0.9-1.3,2.1-1.3,3.6
		c0,1.2,0.5,2.2,1.4,3.2c1,0.9,2.7,1.9,5.1,2.9c4.3,1.5,7.4,3.3,9.3,5.5s2.9,5,2.9,8.3c0,3.7-1.2,6.6-3.7,8.7
		c-2.4,2.1-5.7,3.1-9.9,3.1c-2.8,0-5.4-0.6-7.8-1.7s-4.2-2.8-5.5-4.9c-1.3-2.1-2-4.6-2-7.5h8.9c0,2.5,0.5,4.2,1.5,5.4
		s2.6,1.7,4.8,1.7C-51.2,359.2-49.7,357.6-49.7,354.4z"/>
</g>
</svg>
